ISO-10303-21;
HEADER;
FILE_DESCRIPTION(('ViewDefinition[CoordinationView_V2.0, QuantityTakeOffAddOnView]','ExchangeRequirement[Structural, SurfaceGeometry]'),'2;1');
FILE_NAME('3#JFGKL-15.ifc','2026-04-25T17:20:37',('JYT\\JYT'),('Structural Designer'),'IFC Database Version:Work','Tekla structures 2017 Service Pack 13, IFC Export Version: 4.0.0.0 Aug  6 2021','');
FILE_SCHEMA(('IFC2X3'));
ENDSEC;

DATA;
#1= IFCPERSON('JYT\\JYT','Undefined',$,$,$,$,$,$);
#2= IFCORGANIZATION($,'Trimble Solutions Corporation',$,$,$);
#3= IFCPERSONANDORGANIZATION(#1,#2,$);
#4= IFCAPPLICATION(#2,'2017 Service Pack 13','Tekla Structures','Multi material modeling');
#5= IFCOWNERHISTORY(#3,#4,$,.NOCHANGE.,$,$,$,1777112437);
#6= IFCCARTESIANPOINT((0.,0.,0.));
#7= IFCDIRECTION((1.,0.,0.));
#8= IFCDIRECTION((0.,1.,0.));
#9= IFCDIRECTION((0.,0.,1.));
#10= IFCAXIS2PLACEMENT3D(#6,#9,#7);
#11= IFCGEOMETRICREPRESENTATIONCONTEXT($,'Model',3,1.E-005,#10,$);
#12= IFCGEOMETRICREPRESENTATIONSUBCONTEXT('Body','Model',*,*,*,*,#11,$,.MODEL_VIEW.,$);
#13= IFCGEOMETRICREPRESENTATIONSUBCONTEXT('Axis','Model',*,*,*,*,#11,$,.GRAPH_VIEW.,$);
#14= IFCSIUNIT(*,.LENGTHUNIT.,.MILLI.,.METRE.);
#15= IFCSIUNIT(*,.AREAUNIT.,$,.SQUARE_METRE.);
#16= IFCSIUNIT(*,.VOLUMEUNIT.,$,.CUBIC_METRE.);
#17= IFCSIUNIT(*,.MASSUNIT.,.KILO.,.GRAM.);
#18= IFCSIUNIT(*,.TIMEUNIT.,$,.SECOND.);
#19= IFCSIUNIT(*,.PLANEANGLEUNIT.,$,.RADIAN.);
#20= IFCSIUNIT(*,.SOLIDANGLEUNIT.,$,.STERADIAN.);
#21= IFCSIUNIT(*,.THERMODYNAMICTEMPERATUREUNIT.,$,.DEGREE_CELSIUS.);
#22= IFCSIUNIT(*,.LUMINOUSINTENSITYUNIT.,$,.LUMEN.);
#23= IFCUNITASSIGNMENT((#14,#15,#16,#17,#18,#19,#20,#21,#22));
#24= IFCPROJECT('0G9ypmGqPCoevqyKZdRaas',#5,'\X2\56FD9645667A80FD523690208F93914D75358BBE5907751F4EA7987976EE\X0\',$,$,$,$,(#11),#23);
#25= IFCLOCALPLACEMENT($,#10);
#26= IFCSITE('1dg81WZK15cvcViDrDQjbJ',#5,'Undefined',$,$,#25,$,$,.ELEMENT.,$,$,0.,$,$);
#27= IFCLOCALPLACEMENT(#25,#10);
#28= IFCBUILDING('2BYTJPKtfFaQmkcnnfWG2_',#5,'Undefined',$,$,#27,$,$,.ELEMENT.,$,$,$);
#29= IFCLOCALPLACEMENT(#27,#10);
#30= IFCBUILDINGSTOREY('1FB$PNMVP3OhxhqVtj6feM',#5,'Undefined',$,$,#29,$,$,.ELEMENT.,0.);
#31= IFCLOCALPLACEMENT(#29,#10);
#32= IFCELEMENTASSEMBLY('3BanGsObL4GRE3kLI1PF0H',#5,'Steel Assembly',$,$,#31,$,'2509-3#JFGKL-15',.NOTDEFINED.,.RIGID_FRAME.);
#33= IFCPROPERTYSINGLEVALUE('LENGTH_NET',$,$,$);
#34= IFCPROPERTYSINGLEVALUE('LENGTH_GROSS',$,IFCLENGTHMEASURE(700.),$);
#35= IFCPROPERTYSINGLEVALUE('LENGTH',$,IFCLENGTHMEASURE(700.),$);
#36= IFCPROPERTYSINGLEVALUE('WEIGHT_NET',$,IFCMASSMEASURE(35.08952),$);
#37= IFCPROPERTYSINGLEVALUE('WEIGHT_GROSS',$,IFCMASSMEASURE(35.9417),$);
#38= IFCPROPERTYSINGLEVALUE('WEIGHT',$,IFCMASSMEASURE(35.08952),$);
#39= IFCPROPERTYSINGLEVALUE('AREA',$,IFCAREAMEASURE(1.08355),$);
#40= IFCPROPERTYSET('1PQefT_Ob1h9wsnHVM8sIm',#5,'Default',$,(#33,#34,#35,#36,#37,#38,#39));
#41= IFCPROPERTYSINGLEVALUE('Control number',$,$,$);
#42= IFCPROPERTYSINGLEVALUE('Cast unit rebar weight',$,$,$);
#43= IFCPROPERTYSINGLEVALUE('Assembly/Cast unit weight',$,IFCMASSMEASURE(35.1),$);
#44= IFCPROPERTYSINGLEVALUE('Assembly/Cast unit bottom elevation',$,IFCLABEL(' +19.974'),$);
#45= IFCPROPERTYSINGLEVALUE('Assembly/Cast unit top elevation',$,IFCLABEL(' +20.280'),$);
#46= IFCPROPERTYSINGLEVALUE('Assembly/Cast unit position code',$,IFCLABEL('7-8/H'),$);
#47= IFCPROPERTYSINGLEVALUE('Assembly/Cast unit Mark',$,IFCLABEL('2509-3#JFGKL-15'),$);
#48= IFCPROPERTYSET('0hE4hF0Qf6ZwIivjFDLpH4',#5,'Tekla Assembly','Assembly Properties',(#41,#42,#43,#44,#45,#46,#47));
#49= IFCQUANTITYLENGTH('Width',$,$,200.);
#50= IFCELEMENTQUANTITY('22XMSnBUL69R2l2UWkdpDc',#5,'BaseQuantities',$,$,(#49));
#51= IFCCARTESIANPOINT((51370.,58720.,20270.));
#52= IFCDIRECTION((0.,0.,-1.));
#53= IFCAXIS2PLACEMENT3D(#51,#52,#8);
#54= IFCLOCALPLACEMENT(#31,#53);
#55= IFCCOLOURRGB('Light Gray',0.615686274509804,0.615686274509804,0.611764705882353);
#56= IFCSURFACESTYLERENDERING(#55,0.,$,$,$,$,IFCNORMALISEDRATIOMEASURE(0.00390625),IFCSPECULAREXPONENT(10.),.NOTDEFINED.);
#57= IFCSURFACESTYLE('STEEL/Q355B',.POSITIVE.,(#56));
#58= IFCPRESENTATIONSTYLEASSIGNMENT((#57));
#59= IFCCARTESIANPOINT((0.,-4.,0.));
#60= IFCCARTESIANPOINT((0.,-4.,280.));
#61= IFCCARTESIANPOINT((0.,4.,280.));
#62= IFCCARTESIANPOINT((0.,4.,0.));
#63= IFCPOLYLOOP((#59,#60,#61,#62));
#64= IFCFACEOUTERBOUND(#63,.T.);
#65= IFCFACE((#64));
#66= IFCCARTESIANPOINT((56.,-4.,280.));
#67= IFCCARTESIANPOINT((56.,4.,280.));
#68= IFCPOLYLOOP((#60,#66,#67,#61));
#69= IFCFACEOUTERBOUND(#68,.T.);
#70= IFCFACE((#69));
#71= IFCCARTESIANPOINT((76.,-4.,260.));
#72= IFCCARTESIANPOINT((76.,4.,260.));
#73= IFCPOLYLOOP((#66,#71,#72,#67));
#74= IFCFACEOUTERBOUND(#73,.T.);
#75= IFCFACE((#74));
#76= IFCCARTESIANPOINT((76.,-4.,20.));
#77= IFCCARTESIANPOINT((76.,4.,20.));
#78= IFCPOLYLOOP((#71,#76,#77,#72));
#79= IFCFACEOUTERBOUND(#78,.T.);
#80= IFCFACE((#79));
#81= IFCCARTESIANPOINT((56.,-4.,0.));
#82= IFCCARTESIANPOINT((56.,4.,0.));
#83= IFCPOLYLOOP((#76,#81,#82,#77));
#84= IFCFACEOUTERBOUND(#83,.T.);
#85= IFCFACE((#84));
#86= IFCPOLYLOOP((#81,#59,#62,#82));
#87= IFCFACEOUTERBOUND(#86,.T.);
#88= IFCFACE((#87));
#89= IFCPOLYLOOP((#67,#72,#77,#82,#62,#61));
#90= IFCFACEOUTERBOUND(#89,.T.);
#91= IFCFACE((#90));
#92= IFCPOLYLOOP((#81,#76,#71,#66,#60,#59));
#93= IFCFACEOUTERBOUND(#92,.T.);
#94= IFCFACE((#93));
#95= IFCCLOSEDSHELL((#65,#70,#75,#80,#85,#88,#91,#94));
#96= IFCFACETEDBREP(#95);
#97= IFCSTYLEDITEM(#96,(#58),$);
#98= IFCSHAPEREPRESENTATION(#12,'Body','Brep',(#96));
#99= IFCPRODUCTDEFINITIONSHAPE($,$,(#98));
#100= IFCDISCRETEACCESSORY('11gNvFL7TAl9AGFSQLG5R6',#5,'\X2\75356E23710A9694677F\X0\','PL8*76','PL8*76',#54,#99,'3P93');
#101= IFCDISCRETEACCESSORYTYPE('3eFOUlRqT65QzwiNCQnpSq',#5,'\X2\75356E23710A9694677F\X0\',$,$,$,$,$,$);
#102= IFCPROPERTYSINGLEVALUE('Bottom elevation',$,IFCLABEL(' +19.990'),$);
#103= IFCPROPERTYSINGLEVALUE('Top elevation',$,IFCLABEL(' +20.270'),$);
#104= IFCPROPERTYSINGLEVALUE('Initial GUID',$,$,$);
#105= IFCPROPERTYSINGLEVALUE('Preliminary mark',$,IFCLABEL(''),$);
#106= IFCPROPERTYSINGLEVALUE('Phase',$,IFCINTEGER(3),$);
#107= IFCPROPERTYSINGLEVALUE('Class',$,IFCLABEL('1'),$);
#108= IFCPROPERTYSET('3UvD2tc_5FmRZ8dtSHLvTF',#5,'Tekla Common','Common Properties to Shared building elements',(#102,#103,#104,#105,#106,#107));
#109= IFCPROPERTYSINGLEVALUE('Weight',$,IFCMASSMEASURE(1.3),$);
#110= IFCPROPERTYSINGLEVALUE('Volume',$,IFCVOLUMEMEASURE(0.),$);
#111= IFCPROPERTYSINGLEVALUE('Gross footprint area',$,IFCAREAMEASURE(0.),$);
#112= IFCPROPERTYSINGLEVALUE('Area per tons',$,IFCAREAMEASURE(36.),$);
#113= IFCPROPERTYSINGLEVALUE('Net surface area',$,IFCAREAMEASURE(0.),$);
#114= IFCPROPERTYSINGLEVALUE('Height',$,IFCLENGTHMEASURE(76.),$);
#115= IFCPROPERTYSINGLEVALUE('Width',$,IFCLENGTHMEASURE(8.),$);
#116= IFCPROPERTYSINGLEVALUE('Length',$,IFCLENGTHMEASURE(280.),$);
#117= IFCPROPERTYSET('155aasImLD1BZCD1YEDxjS',#5,'Tekla Quantity','Quantity Properties to Shared building elements',(#109,#110,#111,#112,#113,#114,#115,#116));
#118= IFCPROPERTYSINGLEVALUE('LoadBearing',$,IFCBOOLEAN(.T.),$);
#119= IFCPROPERTYSINGLEVALUE('Reference',$,IFCIDENTIFIER('3P93'),$);
#120= IFCPROPERTYSET('2LZP6gvTDERgixYz0yy0x4',#5,'Pset_PlateCommon','Common Properties to plate elements',(#118,#119));
#121= IFCQUANTITYAREA('NetArea',$,$,0.0472685483399594);
#122= IFCQUANTITYAREA('GrossArea',$,$,0.02128);
#123= IFCQUANTITYAREA('CrossSectionArea',$,$,6.4E-005);
#124= IFCQUANTITYVOLUME('NetVolume',$,$,0.00016704);
#125= IFCQUANTITYVOLUME('GrossVolume',$,$,0.00016704);
#126= IFCELEMENTQUANTITY('3gzkmjTkz4yOnURx$4weHq',#5,'BaseQuantities',$,$,(#121,#122,#123,#124,#125));
#127= IFCMATERIAL('STEEL/Q355B');
#128= IFCCARTESIANPOINT((51370.,58880.,20270.));
#129= IFCDIRECTION((0.,-1.,0.));
#130= IFCAXIS2PLACEMENT3D(#128,#52,#129);
#131= IFCLOCALPLACEMENT(#31,#130);
#132= IFCSHAPEREPRESENTATION(#12,'Body','Brep',(#96));
#133= IFCPRODUCTDEFINITIONSHAPE($,$,(#132));
#134= IFCDISCRETEACCESSORY('0Q_paMkJHET8ixfcA1yrCJ',#5,'\X2\75356E23710A9694677F\X0\','PL8*76','PL8*76',#131,#133,'3P93');
#135= IFCCARTESIANPOINT((51160.,58880.,20270.));
#136= IFCAXIS2PLACEMENT3D(#135,#52,#129);
#137= IFCLOCALPLACEMENT(#31,#136);
#138= IFCSHAPEREPRESENTATION(#12,'Body','Brep',(#96));
#139= IFCPRODUCTDEFINITIONSHAPE($,$,(#138));
#140= IFCDISCRETEACCESSORY('1PzRt9Ioj1T9xxRFz5XgyP',#5,'\X2\75356E23710A9694677F\X0\','PL8*76','PL8*76',#137,#139,'3P93');
#141= IFCCARTESIANPOINT((51160.,58720.,20270.));
#142= IFCAXIS2PLACEMENT3D(#141,#52,#8);
#143= IFCLOCALPLACEMENT(#31,#142);
#144= IFCSHAPEREPRESENTATION(#12,'Body','Brep',(#96));
#145= IFCPRODUCTDEFINITIONSHAPE($,$,(#144));
#146= IFCDISCRETEACCESSORY('1OqMrLvPn06QgGi9wt6$Om',#5,'\X2\75356E23710A9694677F\X0\','PL8*76','PL8*76',#143,#145,'3P93');
#147= IFCCARTESIANPOINT((51650.0000000149,58900.,19977.));
#148= IFCDIRECTION((-1.,0.,0.));
#149= IFCAXIS2PLACEMENT3D(#147,#148,#129);
#150= IFCLOCALPLACEMENT(#31,#149);
#151= IFCCARTESIANPOINT((0.,-3.,0.));
#152= IFCCARTESIANPOINT((0.,-3.,30.));
#153= IFCCARTESIANPOINT((0.,3.,30.));
#154= IFCCARTESIANPOINT((0.,3.,0.));
#155= IFCPOLYLOOP((#151,#152,#153,#154));
#156= IFCFACEOUTERBOUND(#155,.T.);
#157= IFCFACE((#156));
#158= IFCCARTESIANPOINT((200.,-3.,30.));
#159= IFCCARTESIANPOINT((200.,3.,30.));
#160= IFCPOLYLOOP((#152,#158,#159,#153));
#161= IFCFACEOUTERBOUND(#160,.T.);
#162= IFCFACE((#161));
#163= IFCCARTESIANPOINT((200.,-3.,0.));
#164= IFCCARTESIANPOINT((200.,3.,0.));
#165= IFCPOLYLOOP((#158,#163,#164,#159));
#166= IFCFACEOUTERBOUND(#165,.T.);
#167= IFCFACE((#166));
#168= IFCPOLYLOOP((#163,#151,#154,#164));
#169= IFCFACEOUTERBOUND(#168,.T.);
#170= IFCFACE((#169));
#171= IFCPOLYLOOP((#159,#164,#154,#153));
#172= IFCFACEOUTERBOUND(#171,.T.);
#173= IFCFACE((#172));
#174= IFCPOLYLOOP((#163,#158,#152,#151));
#175= IFCFACEOUTERBOUND(#174,.T.);
#176= IFCFACE((#175));
#177= IFCCLOSEDSHELL((#157,#162,#167,#170,#173,#176));
#178= IFCFACETEDBREP(#177);
#179= IFCSTYLEDITEM(#178,(#58),$);
#180= IFCSHAPEREPRESENTATION(#12,'Body','Brep',(#178));
#181= IFCPRODUCTDEFINITIONSHAPE($,$,(#180));
#182= IFCDISCRETEACCESSORY('0dfAhhYDzFrQcPH$DfEjPz',#5,'\X2\886C6761\X0\','PL6*30','PL6*30',#150,#181,'3CT14');
#183= IFCDISCRETEACCESSORYTYPE('19pi1LQ5LETvrr0zVK6ZPk',#5,'\X2\886C6761\X0\',$,$,$,$,$,$);
#184= IFCPROPERTYSINGLEVALUE('Bottom elevation',$,IFCLABEL(' +19.974'),$);
#185= IFCPROPERTYSINGLEVALUE('Top elevation',$,IFCLABEL(' +19.980'),$);
#186= IFCPROPERTYSET('2Ef2yD$w9BPPBxI4WO9Sh4',#5,'Tekla Common','Common Properties to Shared building elements',(#184,#185,#104,#105,#106,#107));
#187= IFCPROPERTYSINGLEVALUE('Weight',$,IFCMASSMEASURE(0.3),$);
#188= IFCPROPERTYSINGLEVALUE('Area per tons',$,IFCAREAMEASURE(52.2),$);
#189= IFCPROPERTYSINGLEVALUE('Height',$,IFCLENGTHMEASURE(30.),$);
#190= IFCPROPERTYSINGLEVALUE('Width',$,IFCLENGTHMEASURE(6.),$);
#191= IFCPROPERTYSINGLEVALUE('Length',$,IFCLENGTHMEASURE(200.),$);
#192= IFCPROPERTYSET('3ceG6ck2b9PQY8Bfo6knJg',#5,'Tekla Quantity','Quantity Properties to Shared building elements',(#187,#110,#111,#188,#113,#189,#190,#191));
#193= IFCPROPERTYSINGLEVALUE('Reference',$,IFCIDENTIFIER('3CT14'),$);
#194= IFCPROPERTYSET('0MezG9Naj55uut$NRUgM6J',#5,'Pset_PlateCommon','Common Properties to plate elements',(#118,#193));
#195= IFCQUANTITYAREA('NetArea',$,$,0.01476);
#196= IFCQUANTITYAREA('GrossArea',$,$,0.006);
#197= IFCQUANTITYAREA('CrossSectionArea',$,$,3.6E-005);
#198= IFCQUANTITYVOLUME('NetVolume',$,$,3.6E-005);
#199= IFCQUANTITYVOLUME('GrossVolume',$,$,3.6E-005);
#200= IFCELEMENTQUANTITY('1PWF57Cjf7shPZww2JiUuL',#5,'BaseQuantities',$,$,(#195,#196,#197,#198,#199));
#201= IFCCARTESIANPOINT((51650.0000000149,58900.,20267.));
#202= IFCAXIS2PLACEMENT3D(#201,#148,#129);
#203= IFCLOCALPLACEMENT(#31,#202);
#204= IFCSHAPEREPRESENTATION(#12,'Body','Brep',(#178));
#205= IFCPRODUCTDEFINITIONSHAPE($,$,(#204));
#206= IFCDISCRETEACCESSORY('1oeKvEmUb1Qg6OTsJ$LnME',#5,'\X2\886C6761\X0\','PL6*30','PL6*30',#203,#205,'3CT14');
#207= IFCPROPERTYSINGLEVALUE('Bottom elevation',$,IFCLABEL(' +20.264'),$);
#208= IFCPROPERTYSET('2p9FB02Fr7v938ShRgT3fq',#5,'Tekla Common','Common Properties to Shared building elements',(#207,#103,#104,#105,#106,#107));
#209= IFCCARTESIANPOINT((50950.,58700.,19977.));
#210= IFCAXIS2PLACEMENT3D(#209,#7,#8);
#211= IFCLOCALPLACEMENT(#31,#210);
#212= IFCSHAPEREPRESENTATION(#12,'Body','Brep',(#178));
#213= IFCPRODUCTDEFINITIONSHAPE($,$,(#212));
#214= IFCDISCRETEACCESSORY('0tuelgDKvF$8PmPrp3d$xk',#5,'\X2\886C6761\X0\','PL6*30','PL6*30',#211,#213,'3CT14');
#215= IFCCARTESIANPOINT((50950.,58700.,20267.));
#216= IFCAXIS2PLACEMENT3D(#215,#7,#8);
#217= IFCLOCALPLACEMENT(#31,#216);
#218= IFCSHAPEREPRESENTATION(#12,'Body','Brep',(#178));
#219= IFCPRODUCTDEFINITIONSHAPE($,$,(#218));
#220= IFCDISCRETEACCESSORY('1HW_WsRhX51BXuWsGKNs29',#5,'\X2\886C6761\X0\','PL6*30','PL6*30',#217,#219,'3CT14');
#221= IFCCARTESIANPOINT((50950.,58800.,20130.));
#222= IFCAXIS2PLACEMENT3D(#221,#9,#7);
#223= IFCLOCALPLACEMENT(#31,#222);
#224= IFCCOLOURRGB('Light Yellow',1.,0.898039215686275,0.);
#225= IFCSURFACESTYLERENDERING(#224,0.,$,$,$,$,IFCNORMALISEDRATIOMEASURE(0.00390625),IFCSPECULAREXPONENT(10.),.NOTDEFINED.);
#226= IFCSURFACESTYLE('STEEL/Q355B',.POSITIVE.,(#225));
#227= IFCPRESENTATIONSTYLEASSIGNMENT((#226));
#228= IFCCARTESIANPOINT((695.,80.,-147.999999999978));
#229= IFCCARTESIANPOINT((687.000000000007,80.,-140.));
#230= IFCCARTESIANPOINT((687.000000000007,4.,-140.));
#231= IFCCARTESIANPOINT((685.999999999964,4.,-138.999999999942));
#232= IFCCARTESIANPOINT((685.999999999964,-4.00000000000728,-138.999999999942));
#233= IFCCARTESIANPOINT((687.000000000007,-4.,-140.));
#234= IFCCARTESIANPOINT((687.000000000007,-80.,-140.));
#235= IFCCARTESIANPOINT((695.,-80.,-147.999999999978));
#236= IFCPOLYLOOP((#228,#229,#230,#231,#232,#233,#234,#235));
#237= IFCFACEOUTERBOUND(#236,.T.);
#238= IFCFACE((#237));
#239= IFCCARTESIANPOINT((5.,-80.,140.));
#240= IFCCARTESIANPOINT((5.,-4.,140.));
#241= IFCCARTESIANPOINT((695.,-4.,140.));
#242= IFCCARTESIANPOINT((695.,-80.,140.));
#243= IFCPOLYLOOP((#239,#240,#241,#242));
#244= IFCFACEOUTERBOUND(#243,.T.);
#245= IFCFACE((#244));
#246= IFCCARTESIANPOINT((649.999999985055,4.,-138.999999999942));
#247= IFCCARTESIANPOINT((649.999999985055,-4.00000000000728,-138.999999999942));
#248= IFCCARTESIANPOINT((684.99999998459,-4.00000000000728,-138.999999999942));
#249= IFCCARTESIANPOINT((684.99999998459,4.,-138.999999999942));
#250= IFCPOLYLOOP((#246,#247,#248,#249));
#251= IFCFACEOUTERBOUND(#250,.T.);
#252= IFCFACE((#251));
#253= IFCCARTESIANPOINT((650.430908962357,4.,-133.52479407252));
#254= IFCCARTESIANPOINT((650.430908962357,-4.00000000000728,-133.52479407252));
#255= IFCPOLYLOOP((#253,#254,#247,#246));
#256= IFCFACEOUTERBOUND(#255,.T.);
#257= IFCFACE((#256));
#258= IFCCARTESIANPOINT((651.713023445911,4.,-128.184405983178));
#259= IFCCARTESIANPOINT((651.713023445911,-4.00000000000728,-128.184405983178));
#260= IFCPOLYLOOP((#258,#259,#254,#253));
#261= IFCFACEOUTERBOUND(#260,.T.);
#262= IFCFACE((#261));
#263= IFCCARTESIANPOINT((653.814773537044,4.,-123.110333747965));
#264= IFCCARTESIANPOINT((653.814773537044,-4.00000000000728,-123.110333747965));
#265= IFCPOLYLOOP((#263,#264,#259,#258));
#266= IFCFACEOUTERBOUND(#265,.T.);
#267= IFCFACE((#266));
#268= IFCCARTESIANPOINT((656.684407197747,4.,-118.427517805922));
#269= IFCCARTESIANPOINT((656.684407197747,-4.00000000000728,-118.427517805922));
#270= IFCPOLYLOOP((#268,#269,#264,#263));
#271= IFCFACEOUTERBOUND(#270,.T.);
#272= IFCFACE((#271));
#273= IFCCARTESIANPOINT((660.251264557046,4.,-114.251264572205));
#274= IFCCARTESIANPOINT((660.251264557046,-4.00000000000728,-114.251264572205));
#275= IFCPOLYLOOP((#273,#274,#269,#268));
#276= IFCFACEOUTERBOUND(#275,.T.);
#277= IFCFACE((#276));
#278= IFCCARTESIANPOINT((664.427517790711,4.,-110.684407212844));
#279= IFCCARTESIANPOINT((664.427517790711,-4.00000000000728,-110.684407212844));
#280= IFCPOLYLOOP((#278,#279,#274,#273));
#281= IFCFACEOUTERBOUND(#280,.T.);
#282= IFCFACE((#281));
#283= IFCCARTESIANPOINT((669.110333732722,4.,-107.81477355208));
#284= IFCCARTESIANPOINT((669.110333732722,-4.00000000000728,-107.81477355208));
#285= IFCPOLYLOOP((#283,#284,#279,#278));
#286= IFCFACEOUTERBOUND(#285,.T.);
#287= IFCFACE((#286));
#288= IFCCARTESIANPOINT((674.184405967906,4.,-105.713023460881));
#289= IFCCARTESIANPOINT((674.184405967906,-4.00000000000728,-105.713023460881));
#290= IFCPOLYLOOP((#288,#289,#284,#283));
#291= IFCFACEOUTERBOUND(#290,.T.);
#292= IFCFACE((#291));
#293= IFCCARTESIANPOINT((679.52479405723,4.,-104.430908977254));
#294= IFCCARTESIANPOINT((679.52479405723,-4.00000000000728,-104.430908977254));
#295= IFCPOLYLOOP((#293,#294,#289,#288));
#296= IFCFACEOUTERBOUND(#295,.T.);
#297= IFCFACE((#296));
#298= IFCCARTESIANPOINT((684.999999984648,4.,-103.999999999942));
#299= IFCCARTESIANPOINT((684.999999984648,-4.00000000000728,-103.999999999942));
#300= IFCPOLYLOOP((#298,#299,#294,#293));
#301= IFCFACEOUTERBOUND(#300,.T.);
#302= IFCFACE((#301));
#303= IFCCARTESIANPOINT((684.999999984997,4.,104.000000000058));
#304= IFCCARTESIANPOINT((684.999999984997,-4.,104.000000000058));
#305= IFCPOLYLOOP((#303,#304,#299,#298));
#306= IFCFACEOUTERBOUND(#305,.T.);
#307= IFCFACE((#306));
#308= IFCCARTESIANPOINT((679.524793709657,4.,104.43090808226));
#309= IFCCARTESIANPOINT((679.524793709657,-4.,104.43090808226));
#310= IFCPOLYLOOP((#308,#309,#304,#303));
#311= IFCFACEOUTERBOUND(#310,.T.);
#312= IFCFACE((#311));
#313= IFCCARTESIANPOINT((674.184405184387,4.,105.713021934829));
#314= IFCCARTESIANPOINT((674.184405184387,-4.,105.713021934829));
#315= IFCPOLYLOOP((#313,#314,#309,#308));
#316= IFCFACEOUTERBOUND(#315,.T.);
#317= IFCFACE((#316));
#318= IFCCARTESIANPOINT((669.110332498123,4.,107.814771659763));
#319= IFCCARTESIANPOINT((669.110332498123,-4.,107.814771659763));
#320= IFCPOLYLOOP((#318,#319,#314,#313));
#321= IFCFACEOUTERBOUND(#320,.T.);
#322= IFCFACE((#321));
#323= IFCCARTESIANPOINT((664.427516160089,4.,110.684405203607));
#324= IFCCARTESIANPOINT((664.427516160089,-4.,110.684405203607));
#325= IFCPOLYLOOP((#323,#324,#319,#318));
#326= IFCFACEOUTERBOUND(#325,.T.);
#327= IFCFACE((#326));
#328= IFCCARTESIANPOINT((660.251262649719,4.,114.251262664853));
#329= IFCCARTESIANPOINT((660.251262649719,-4.,114.251262664853));
#330= IFCPOLYLOOP((#328,#329,#324,#323));
#331= IFCFACEOUTERBOUND(#330,.T.);
#332= IFCFACE((#331));
#333= IFCCARTESIANPOINT((656.684405188469,4.,118.427516175223));
#334= IFCCARTESIANPOINT((656.684405188469,-4.,118.427516175223));
#335= IFCPOLYLOOP((#333,#334,#329,#328));
#336= IFCFACEOUTERBOUND(#335,.T.);
#337= IFCFACE((#336));
#338= IFCCARTESIANPOINT((653.814771644618,4.,123.110332513261));
#339= IFCCARTESIANPOINT((653.814771644618,-4.,123.110332513261));
#340= IFCPOLYLOOP((#338,#339,#334,#333));
#341= IFCFACEOUTERBOUND(#340,.T.);
#342= IFCFACE((#341));
#343= IFCCARTESIANPOINT((651.713021919677,4.,128.184405199529));
#344= IFCCARTESIANPOINT((651.713021919677,-4.,128.184405199529));
#345= IFCPOLYLOOP((#343,#344,#339,#338));
#346= IFCFACEOUTERBOUND(#345,.T.);
#347= IFCFACE((#346));
#348= IFCCARTESIANPOINT((650.430908067094,4.,133.524793724806));
#349= IFCCARTESIANPOINT((650.430908067094,-4.,133.524793724806));
#350= IFCPOLYLOOP((#348,#349,#344,#343));
#351= IFCFACEOUTERBOUND(#350,.T.);
#352= IFCFACE((#351));
#353= IFCCARTESIANPOINT((649.999999985055,4.,139.000000000062));
#354= IFCCARTESIANPOINT((649.999999985055,-4.,139.000000000062));
#355= IFCPOLYLOOP((#353,#354,#349,#348));
#356= IFCFACEOUTERBOUND(#355,.T.);
#357= IFCFACE((#356));
#358= IFCCARTESIANPOINT((684.999999985055,4.,139.000000000058));
#359= IFCCARTESIANPOINT((684.999999985055,-4.,139.000000000058));
#360= IFCPOLYLOOP((#358,#359,#354,#353));
#361= IFCFACEOUTERBOUND(#360,.T.);
#362= IFCFACE((#361));
#363= IFCCARTESIANPOINT((695.,4.,139.000000000055));
#364= IFCCARTESIANPOINT((695.,-4.,139.000000000055));
#365= IFCPOLYLOOP((#363,#364,#359,#358));
#366= IFCFACEOUTERBOUND(#365,.T.);
#367= IFCFACE((#366));
#368= IFCCARTESIANPOINT((695.,4.,140.));
#369= IFCCARTESIANPOINT((695.,80.,140.));
#370= IFCCARTESIANPOINT((695.,80.,142.000000000022));
#371= IFCCARTESIANPOINT((695.,-80.,142.000000000022));
#372= IFCPOLYLOOP((#242,#241,#364,#363,#368,#369,#370,#371));
#373= IFCFACEOUTERBOUND(#372,.T.);
#374= IFCFACE((#373));
#375= IFCCARTESIANPOINT((5.,4.,140.));
#376= IFCCARTESIANPOINT((5.,80.,140.));
#377= IFCPOLYLOOP((#375,#376,#369,#368));
#378= IFCFACEOUTERBOUND(#377,.T.);
#379= IFCFACE((#378));
#380= IFCCARTESIANPOINT((5.,80.,142.000000000022));
#381= IFCCARTESIANPOINT((12.9999999999709,80.,150.));
#382= IFCCARTESIANPOINT((687.000000000022,80.,150.));
#383= IFCPOLYLOOP((#369,#376,#380,#381,#382,#370));
#384= IFCFACEOUTERBOUND(#383,.T.);
#385= IFCFACE((#384));
#386= IFCCARTESIANPOINT((12.9999999999709,-80.,150.));
#387= IFCCARTESIANPOINT((687.000000000022,-80.,150.));
#388= IFCPOLYLOOP((#381,#386,#387,#382));
#389= IFCFACEOUTERBOUND(#388,.T.);
#390= IFCFACE((#389));
#391= IFCPOLYLOOP((#370,#382,#387,#371));
#392= IFCFACEOUTERBOUND(#391,.T.);
#393= IFCFACE((#392));
#394= IFCCARTESIANPOINT((5.,-80.,142.000000000022));
#395= IFCPOLYLOOP((#386,#394,#239,#242,#371,#387));
#396= IFCFACEOUTERBOUND(#395,.T.);
#397= IFCFACE((#396));
#398= IFCPOLYLOOP((#381,#380,#394,#386));
#399= IFCFACEOUTERBOUND(#398,.T.);
#400= IFCFACE((#399));
#401= IFCCARTESIANPOINT((5.,4.,139.000000000058));
#402= IFCCARTESIANPOINT((5.,-4.,139.000000000058));
#403= IFCPOLYLOOP((#376,#375,#401,#402,#240,#239,#394,#380));
#404= IFCFACEOUTERBOUND(#403,.T.);
#405= IFCFACE((#404));
#406= IFCCARTESIANPOINT((15.0000000000437,4.,139.000000000062));
#407= IFCCARTESIANPOINT((15.0000000000437,-4.,139.000000000062));
#408= IFCPOLYLOOP((#406,#407,#402,#401));
#409= IFCFACEOUTERBOUND(#408,.T.);
#410= IFCFACE((#409));
#411= IFCCARTESIANPOINT((50.0000000000437,4.,139.000000000062));
#412= IFCCARTESIANPOINT((50.0000000000437,-4.,139.000000000062));
#413= IFCPOLYLOOP((#411,#412,#407,#406));
#414= IFCFACEOUTERBOUND(#413,.T.);
#415= IFCFACE((#414));
#416= IFCCARTESIANPOINT((49.5690919180051,4.,133.524793724806));
#417= IFCCARTESIANPOINT((49.5690919180051,-4.,133.524793724806));
#418= IFCPOLYLOOP((#416,#417,#412,#411));
#419= IFCFACEOUTERBOUND(#418,.T.);
#420= IFCFACE((#419));
#421= IFCCARTESIANPOINT((48.2869780654219,4.,128.184405199532));
#422= IFCCARTESIANPOINT((48.2869780654219,-4.,128.184405199532));
#423= IFCPOLYLOOP((#421,#422,#417,#416));
#424= IFCFACEOUTERBOUND(#423,.T.);
#425= IFCFACE((#424));
#426= IFCCARTESIANPOINT((46.1852283404805,4.,123.110332513264));
#427= IFCCARTESIANPOINT((46.1852283404805,-4.,123.110332513264));
#428= IFCPOLYLOOP((#426,#427,#422,#421));
#429= IFCFACEOUTERBOUND(#428,.T.);
#430= IFCFACE((#429));
#431= IFCCARTESIANPOINT((43.3155947966297,4.,118.427516175223));
#432= IFCCARTESIANPOINT((43.3155947966297,-4.,118.427516175223));
#433= IFCPOLYLOOP((#431,#432,#427,#426));
#434= IFCFACEOUTERBOUND(#433,.T.);
#435= IFCFACE((#434));
#436= IFCCARTESIANPOINT((39.7487373353797,4.,114.251262664853));
#437= IFCCARTESIANPOINT((39.7487373353797,-4.,114.251262664853));
#438= IFCPOLYLOOP((#436,#437,#432,#431));
#439= IFCFACEOUTERBOUND(#438,.T.);
#440= IFCFACE((#439));
#441= IFCCARTESIANPOINT((35.5724838250098,4.,110.684405203607));
#442= IFCCARTESIANPOINT((35.5724838250098,-4.,110.684405203607));
#443= IFCPOLYLOOP((#441,#442,#437,#436));
#444= IFCFACEOUTERBOUND(#443,.T.);
#445= IFCFACE((#444));
#446= IFCCARTESIANPOINT((30.8896674869757,4.,107.814771659767));
#447= IFCCARTESIANPOINT((30.8896674869757,-4.,107.814771659767));
#448= IFCPOLYLOOP((#446,#447,#442,#441));
#449= IFCFACEOUTERBOUND(#448,.T.);
#450= IFCFACE((#449));
#451= IFCCARTESIANPOINT((25.8155948007116,4.,105.713021934833));
#452= IFCCARTESIANPOINT((25.8155948007116,-4.,105.713021934833));
#453= IFCPOLYLOOP((#451,#452,#447,#446));
#454= IFCFACEOUTERBOUND(#453,.T.);
#455= IFCFACE((#454));
#456= IFCCARTESIANPOINT((20.4752062754415,4.,104.430908082264));
#457= IFCCARTESIANPOINT((20.4752062754415,-4.,104.430908082264));
#458= IFCPOLYLOOP((#456,#457,#452,#451));
#459= IFCFACEOUTERBOUND(#458,.T.);
#460= IFCFACE((#459));
#461= IFCCARTESIANPOINT((15.0000000001019,4.,104.000000000062));
#462= IFCCARTESIANPOINT((15.0000000001019,-4.,104.000000000062));
#463= IFCPOLYLOOP((#461,#462,#457,#456));
#464= IFCFACEOUTERBOUND(#463,.T.);
#465= IFCFACE((#464));
#466= IFCCARTESIANPOINT((15.0000000004511,4.,-103.999999999938));
#467= IFCCARTESIANPOINT((15.0000000004511,-4.,-103.999999999938));
#468= IFCPOLYLOOP((#466,#467,#462,#461));
#469= IFCFACEOUTERBOUND(#468,.T.);
#470= IFCFACE((#469));
#471= IFCCARTESIANPOINT((20.475205927869,4.,-104.430908977251));
#472= IFCCARTESIANPOINT((20.475205927869,-4.,-104.430908977251));
#473= IFCPOLYLOOP((#471,#472,#467,#466));
#474= IFCFACEOUTERBOUND(#473,.T.);
#475= IFCFACE((#474));
#476= IFCCARTESIANPOINT((25.8155940171928,4.,-105.713023460878));
#477= IFCCARTESIANPOINT((25.8155940171928,-4.,-105.713023460878));
#478= IFCPOLYLOOP((#476,#477,#472,#471));
#479= IFCFACEOUTERBOUND(#478,.T.);
#480= IFCFACE((#479));
#481= IFCCARTESIANPOINT((30.8896662523766,4.,-107.814773552076));
#482= IFCCARTESIANPOINT((30.8896662523766,-4.,-107.814773552076));
#483= IFCPOLYLOOP((#481,#482,#477,#476));
#484= IFCFACEOUTERBOUND(#483,.T.);
#485= IFCFACE((#484));
#486= IFCCARTESIANPOINT((35.5724821943877,4.,-110.684407212841));
#487= IFCCARTESIANPOINT((35.5724821943877,-4.,-110.684407212841));
#488= IFCPOLYLOOP((#486,#487,#482,#481));
#489= IFCFACEOUTERBOUND(#488,.T.);
#490= IFCFACE((#489));
#491= IFCCARTESIANPOINT((39.7487354280529,4.,-114.251264572202));
#492= IFCCARTESIANPOINT((39.7487354280529,-4.,-114.251264572202));
#493= IFCPOLYLOOP((#491,#492,#487,#486));
#494= IFCFACEOUTERBOUND(#493,.T.);
#495= IFCFACE((#494));
#496= IFCCARTESIANPOINT((43.3155927873522,4.,-118.427517805918));
#497= IFCCARTESIANPOINT((43.3155927873522,-4.,-118.427517805918));
#498= IFCPOLYLOOP((#496,#497,#492,#491));
#499= IFCFACEOUTERBOUND(#498,.T.);
#500= IFCFACE((#499));
#501= IFCCARTESIANPOINT((46.1852264480549,4.,-123.110333747962));
#502= IFCCARTESIANPOINT((46.1852264480549,-4.,-123.110333747962));
#503= IFCPOLYLOOP((#501,#502,#497,#496));
#504= IFCFACEOUTERBOUND(#503,.T.);
#505= IFCFACE((#504));
#506= IFCCARTESIANPOINT((48.2869765391879,4.,-128.184405983175));
#507= IFCCARTESIANPOINT((48.2869765391879,-4.,-128.184405983175));
#508= IFCPOLYLOOP((#506,#507,#502,#501));
#509= IFCFACEOUTERBOUND(#508,.T.);
#510= IFCFACE((#509));
#511= IFCCARTESIANPOINT((49.5690910227422,4.,-133.524794072517));
#512= IFCCARTESIANPOINT((49.5690910227422,-4.,-133.524794072517));
#513= IFCPOLYLOOP((#511,#512,#507,#506));
#514= IFCFACEOUTERBOUND(#513,.T.);
#515= IFCFACE((#514));
#516= IFCCARTESIANPOINT((50.0000000000437,4.,-138.999999999938));
#517= IFCCARTESIANPOINT((50.0000000000437,-4.,-138.999999999938));
#518= IFCPOLYLOOP((#516,#517,#512,#511));
#519= IFCFACEOUTERBOUND(#518,.T.);
#520= IFCFACE((#519));
#521= IFCCARTESIANPOINT((15.0000000005093,4.,-138.999999999938));
#522= IFCCARTESIANPOINT((15.0000000005093,-4.,-138.999999999938));
#523= IFCPOLYLOOP((#521,#522,#517,#516));
#524= IFCFACEOUTERBOUND(#523,.T.);
#525= IFCFACE((#524));
#526= IFCCARTESIANPOINT((14.0000000000509,4.,-138.999999999938));
#527= IFCCARTESIANPOINT((14.0000000000509,-4.,-138.999999999938));
#528= IFCPOLYLOOP((#522,#521,#526,#527));
#529= IFCFACEOUTERBOUND(#528,.T.);
#530= IFCFACE((#529));
#531= IFCCARTESIANPOINT((12.9999999999927,4.,-140.));
#532= IFCCARTESIANPOINT((12.9999999999927,80.,-140.));
#533= IFCCARTESIANPOINT((5.,80.,-147.999999999978));
#534= IFCCARTESIANPOINT((5.,-80.,-147.999999999978));
#535= IFCCARTESIANPOINT((12.9999999999927,-80.,-140.));
#536= IFCCARTESIANPOINT((12.9999999999927,-4.,-140.));
#537= IFCPOLYLOOP((#526,#531,#532,#533,#534,#535,#536,#527));
#538= IFCFACEOUTERBOUND(#537,.T.);
#539= IFCFACE((#538));
#540= IFCCARTESIANPOINT((5.,80.,-150.));
#541= IFCCARTESIANPOINT((5.,-80.,-150.));
#542= IFCPOLYLOOP((#540,#541,#534,#533));
#543= IFCFACEOUTERBOUND(#542,.T.);
#544= IFCFACE((#543));
#545= IFCCARTESIANPOINT((695.,80.,-150.));
#546= IFCCARTESIANPOINT((695.,-80.,-150.));
#547= IFCPOLYLOOP((#541,#540,#545,#546));
#548= IFCFACEOUTERBOUND(#547,.T.);
#549= IFCFACE((#548));
#550= IFCPOLYLOOP((#546,#545,#228,#235));
#551= IFCFACEOUTERBOUND(#550,.T.);
#552= IFCFACE((#551));
#553= IFCPOLYLOOP((#535,#534,#541,#546,#235,#234));
#554= IFCFACEOUTERBOUND(#553,.T.);
#555= IFCFACE((#554));
#556= IFCPOLYLOOP((#536,#535,#234,#233));
#557= IFCFACEOUTERBOUND(#556,.T.);
#558= IFCFACE((#557));
#559= IFCPOLYLOOP((#248,#247,#254,#259,#264,#269,#274,#279,#284,#289,#294,#299,#304,#309,#314,#319,#324,#329,#334,#339,#344,#349,#354,#359,#364,#241,#240,#402,#407,#412,#417,#422,#427,#432,#437,#442,#447,#452,#457,#462,#467,#472,#477,#482,#487,#492,#497,#502,#507,#512,#517,#522,#527,#536,#233,#232));
#560= IFCFACEOUTERBOUND(#559,.T.);
#561= IFCFACE((#560));
#562= IFCPOLYLOOP((#249,#248,#232,#231));
#563= IFCFACEOUTERBOUND(#562,.T.);
#564= IFCFACE((#563));
#565= IFCPOLYLOOP((#531,#526,#521,#516,#511,#506,#501,#496,#491,#486,#481,#476,#471,#466,#461,#456,#451,#446,#441,#436,#431,#426,#421,#416,#411,#406,#401,#375,#368,#363,#358,#353,#348,#343,#338,#333,#328,#323,#318,#313,#308,#303,#298,#293,#288,#283,#278,#273,#268,#263,#258,#253,#246,#249,#231,#230));
#566= IFCFACEOUTERBOUND(#565,.T.);
#567= IFCFACE((#566));
#568= IFCPOLYLOOP((#532,#531,#230,#229));
#569= IFCFACEOUTERBOUND(#568,.T.);
#570= IFCFACE((#569));
#571= IFCPOLYLOOP((#545,#540,#533,#532,#229,#228));
#572= IFCFACEOUTERBOUND(#571,.T.);
#573= IFCFACE((#572));
#574= IFCCLOSEDSHELL((#238,#245,#252,#257,#262,#267,#272,#277,#282,#287,#292,#297,#302,#307,#312,#317,#322,#327,#332,#337,#342,#347,#352,#357,#362,#367,#374,#379,#385,#390,#393,#397,#400,#405,#410,#415,#420,#425,#430,#435,#440,#445,#450,#455,#460,#465,#470,#475,#480,#485,#490,#495,#500,#505,#510,#515,#520,#525,#530,#539,#544,#549,#552,#555,#558,#561,#564,#567,#570,#573));
#575= IFCFACETEDBREP(#574);
#576= IFCSTYLEDITEM(#575,(#227),$);
#577= IFCSHAPEREPRESENTATION(#12,'Body','Brep',(#575));
#578= IFCPRODUCTDEFINITIONSHAPE($,$,(#577));
#579= IFCBEAM('2uYUMisDX6EQhy$Fv8ioC2',#5,'\X2\673A623F94A26881\X0\','HI300-8-10*160','HI300-8-10*160',#223,#578,'3H115');
#580= IFCBEAMTYPE('1UgN_osAv3ShaiPScEI9FY',#5,'HI300-8-10*160',$,$,$,$,$,$,.NOTDEFINED.);
#581= IFCPROPERTYSINGLEVALUE('Bottom elevation',$,IFCLABEL(' +19.980'),$);
#582= IFCPROPERTYSINGLEVALUE('Top elevation',$,IFCLABEL(' +20.280'),$);
#583= IFCPROPERTYSINGLEVALUE('Class',$,IFCLABEL('300'),$);
#584= IFCPROPERTYSET('1eVh9omBjBXujMY04XLq9s',#5,'Tekla Common','Common Properties to Shared building elements',(#581,#582,#104,#105,#106,#583));
#585= IFCPROPERTYSINGLEVALUE('Weight',$,IFCMASSMEASURE(28.7),$);
#586= IFCPROPERTYSINGLEVALUE('Gross footprint area',$,IFCAREAMEASURE(0.1),$);
#587= IFCPROPERTYSINGLEVALUE('Area per tons',$,IFCAREAMEASURE(29.1),$);
#588= IFCPROPERTYSINGLEVALUE('Net surface area',$,IFCAREAMEASURE(0.8),$);
#589= IFCPROPERTYSINGLEVALUE('Height',$,IFCLENGTHMEASURE(300.),$);
#590= IFCPROPERTYSINGLEVALUE('Width',$,IFCLENGTHMEASURE(160.),$);
#591= IFCPROPERTYSINGLEVALUE('Length',$,IFCLENGTHMEASURE(690.),$);
#592= IFCPROPERTYSET('2F$3OpmPL6ogKj55IH349I',#5,'Tekla Quantity','Quantity Properties to Shared building elements',(#585,#110,#586,#587,#588,#589,#590,#591));
#593= IFCPROPERTYSINGLEVALUE('Reference',$,IFCIDENTIFIER('3H115'),$);
#594= IFCPROPERTYSET('18aNSwDTn2KgCBrErNdigL',#5,'Pset_BeamCommon','Common Properties to beam elements',(#118,#593));
#595= IFCQUANTITYLENGTH('Length',$,$,690.);
#596= IFCQUANTITYAREA('OuterSurfaceArea',$,$,0.835433596149358);
#597= IFCQUANTITYVOLUME('NetVolume',$,$,0.00365784284637254);
#598= IFCQUANTITYWEIGHT('NetWeight',$,$,28.7140663440245);
#599= IFCELEMENTQUANTITY('3HEl5pkk95Nvrv5DZEnGeN',#5,'BaseQuantities',$,$,(#595,#596,#597,#598));
#600= IFCRELAGGREGATES('2Y$bKfft5BZgtquSNhQc7L',#5,$,$,#24,(#26));
#601= IFCRELAGGREGATES('2f$ERRFoD1sAGa2Vn8Jvz$',#5,$,$,#26,(#28));
#602= IFCRELAGGREGATES('2qLMdIKoX3JvEFOeaKiyYt',#5,$,$,#28,(#30));
#603= IFCRELAGGREGATES('3K5bWNVHf3lAmnZaHBOQvo',#5,$,$,#32,(#579,#220,#214,#206,#182,#146,#140,#134,#100));
#604= IFCRELCONTAINEDINSPATIALSTRUCTURE('2kfhHXcWf8DR_aHHDCEsec',#5,$,$,(#32),#30);
#605= IFCRELDEFINESBYPROPERTIES('3EwuspNEPDzhAj9wcggYB9',#5,$,$,(#32),#40);
#606= IFCRELDEFINESBYPROPERTIES('3PNPfJ_DXFu8V6QBjjIXm$',#5,$,$,(#32),#48);
#607= IFCRELDEFINESBYPROPERTIES('30VJ4rX_51TxyBRb_uCAtn',#5,$,$,(#32),#50);
#608= IFCRELDEFINESBYPROPERTIES('36hpgMOBX50xITe3VY3bvE',#5,$,$,(#146,#140,#134,#100),#108);
#609= IFCRELDEFINESBYPROPERTIES('3iEqID3lHB4BBt7wVjNgab',#5,$,$,(#146,#140,#134,#100),#117);
#610= IFCRELDEFINESBYPROPERTIES('3ZJHk5u5HDv9tlaOoeqh97',#5,$,$,(#146,#140,#134,#100),#120);
#611= IFCRELDEFINESBYPROPERTIES('0_YPax_x1BU9yBs_dBl1__',#5,$,$,(#146,#140,#134,#100),#126);
#612= IFCRELDEFINESBYPROPERTIES('21WV6$4zr7R8QGrpcpYJVh',#5,$,$,(#214,#182),#186);
#613= IFCRELDEFINESBYPROPERTIES('3e8UG1zsrFkw8Uqz2eIPmv',#5,$,$,(#220,#214,#206,#182),#192);
#614= IFCRELDEFINESBYPROPERTIES('3UPLWfk4n93vJtY3_wN5qT',#5,$,$,(#220,#214,#206,#182),#194);
#615= IFCRELDEFINESBYPROPERTIES('2clwdrM5jFOuJW1GHM4KMu',#5,$,$,(#220,#214,#206,#182),#200);
#616= IFCRELDEFINESBYPROPERTIES('0WajJTHjH65PvffSGeg5eM',#5,$,$,(#220,#206),#208);
#617= IFCRELDEFINESBYPROPERTIES('2WCIAFKqv6NAbSC_yWIwha',#5,$,$,(#579),#584);
#618= IFCRELDEFINESBYPROPERTIES('2$7TpEOHnAw9hwNSvY$OcW',#5,$,$,(#579),#592);
#619= IFCRELDEFINESBYPROPERTIES('3XXFEy71LDG8iCeInvSdTj',#5,$,$,(#579),#594);
#620= IFCRELDEFINESBYPROPERTIES('3A8FHoNS5F5wmwPwLT0Vb7',#5,$,$,(#579),#599);
#621= IFCRELDEFINESBYTYPE('17nDedL5D5yxshuoEwDCeS',#5,$,$,(#146,#140,#134,#100),#101);
#622= IFCRELDEFINESBYTYPE('3V7NV8WH9BLfZTMJLjxSoa',#5,$,$,(#220,#214,#206,#182),#183);
#623= IFCRELDEFINESBYTYPE('3PvHrm0h9B8gAHa44VzT6t',#5,$,$,(#579),#580);
#624= IFCRELASSOCIATESMATERIAL('3k1GnC2UzFeBpFBy9M27gM',#5,$,$,(#579,#220,#214,#206,#182,#146,#140,#134,#100),#127);
#625= IFCPRESENTATIONLAYERASSIGNMENT('\X2\75356E23710A9694677F\X0\',$,(#98,#132,#138,#144),$);
#626= IFCPRESENTATIONLAYERASSIGNMENT('\X2\886C6761\X0\',$,(#180,#204,#212,#218),$);
#627= IFCPRESENTATIONLAYERASSIGNMENT('\X2\673A623F94A26881\X0\',$,(#577),$);
ENDSEC;

END-ISO-10303-21;
