# File generated by IfcOpenShell 0.8.5-1c5b825
g product-41a97e4f-5477-4abc-9290-3dc6954056c6-body
s 1
v 51.366 58.72 20.27
v 51.366 58.72 19.99
v 51.374 58.72 19.99
v 51.374 58.72 20.27
v 51.366 58.72 19.99
v 51.366 58.776 19.99
v 51.374 58.776 19.99
v 51.374 58.72 19.99
v 51.366 58.776 19.99
v 51.366 58.796 20.01
v 51.374 58.796 20.01
v 51.374 58.776 19.99
v 51.366 58.796 20.01
v 51.366 58.796 20.25
v 51.374 58.796 20.25
v 51.374 58.796 20.01
v 51.366 58.796 20.25
v 51.366 58.776 20.27
v 51.374 58.776 20.27
v 51.374 58.796 20.25
v 51.366 58.72 20.27
v 51.366 58.776 20.27
v 51.374 58.72 20.27
v 51.374 58.776 20.27
v 51.374 58.776 19.99
v 51.374 58.796 20.01
v 51.374 58.796 20.25
v 51.374 58.776 20.27
v 51.374 58.72 20.27
v 51.374 58.72 19.99
v 51.366 58.796 20.25
v 51.366 58.776 20.27
v 51.366 58.796 20.01
v 51.366 58.776 19.99
v 51.366 58.72 19.99
v 51.366 58.72 20.27
vn 0 -1 0
vn 0 -1 0
vn 0 -1 0
vn 0 -1 0
vn 0 0 -1
vn 0 0 -1
vn 0 0 -1
vn 0 0 -1
vn 0 0.707106781186548 -0.707106781186548
vn 0 0.707106781186548 -0.707106781186548
vn 0 0.707106781186548 -0.707106781186548
vn 0 0.707106781186548 -0.707106781186548
vn 0 1 0
vn 0 1 0
vn 0 1 0
vn 0 1 0
vn 0 0.707106781186548 0.707106781186547
vn 0 0.707106781186548 0.707106781186547
vn 0 0.707106781186548 0.707106781186547
vn 0 0.707106781186548 0.707106781186547
vn 0 0 1
vn 0 0 1
vn 0 0 1
vn 0 0 1
vn 1 0 0
vn 1 0 0
vn 1 0 0
vn 1 0 0
vn 1 0 0
vn 1 0 0
vn -1 0 0
vn -1 0 0
vn -1 0 0
vn -1 0 0
vn -1 0 0
vn -1 0 0
usemtl IfcSurfaceStyleRendering-56
f 1//0 2//1 3//2
f 1//0 3//2 4//3
f 7//6 5//4 6//5
f 7//6 8//7 5//4
f 11//10 9//8 10//9
f 11//10 12//11 9//8
f 13//12 14//13 15//14
f 13//12 15//14 16//15
f 17//16 18//17 19//18
f 17//16 19//18 20//19
f 23//22 22//21 21//20
f 23//22 24//23 22//21
f 27//26 28//27 29//28
f 26//25 29//28 30//29
f 26//25 30//29 25//24
f 26//25 27//26 29//28
f 33//32 34//33 35//34
f 31//30 35//34 36//35
f 31//30 33//32 35//34
f 32//31 31//30 36//35
g product-1afb3916-b934-4e74-8b3b-a66281f35313-body
s 1
v 51.374 58.88 20.27
v 51.374 58.88 19.99
v 51.366 58.88 19.99
v 51.366 58.88 20.27
v 51.374 58.88 19.99
v 51.374 58.824 19.99
v 51.366 58.824 19.99
v 51.366 58.88 19.99
v 51.374 58.824 19.99
v 51.374 58.804 20.01
v 51.366 58.804 20.01
v 51.366 58.824 19.99
v 51.374 58.804 20.01
v 51.374 58.804 20.25
v 51.366 58.804 20.25
v 51.366 58.804 20.01
v 51.374 58.804 20.25
v 51.374 58.824 20.27
v 51.366 58.824 20.27
v 51.366 58.804 20.25
v 51.374 58.88 20.27
v 51.374 58.824 20.27
v 51.366 58.88 20.27
v 51.366 58.824 20.27
v 51.366 58.824 19.99
v 51.366 58.804 20.01
v 51.366 58.804 20.25
v 51.366 58.824 20.27
v 51.366 58.88 20.27
v 51.366 58.88 19.99
v 51.374 58.804 20.25
v 51.374 58.824 20.27
v 51.374 58.804 20.01
v 51.374 58.824 19.99
v 51.374 58.88 19.99
v 51.374 58.88 20.27
vn 0 1 0
vn 0 1 0
vn 0 1 0
vn 0 1 0
vn 0 0 -1
vn 0 0 -1
vn 0 0 -1
vn 0 0 -1
vn 0 -0.707106781186548 -0.707106781186548
vn 0 -0.707106781186548 -0.707106781186548
vn 0 -0.707106781186548 -0.707106781186548
vn 0 -0.707106781186548 -0.707106781186548
vn 0 -1 0
vn 0 -1 0
vn 0 -1 0
vn 0 -1 0
vn 0 -0.707106781186548 0.707106781186547
vn 0 -0.707106781186548 0.707106781186547
vn 0 -0.707106781186548 0.707106781186547
vn 0 -0.707106781186548 0.707106781186547
vn 0 0 1
vn 0 0 1
vn 0 0 1
vn 0 0 1
vn -1 0 0
vn -1 0 0
vn -1 0 0
vn -1 0 0
vn -1 0 0
vn -1 0 0
vn 1 0 0
vn 1 0 0
vn 1 0 0
vn 1 0 0
vn 1 0 0
vn 1 0 0
usemtl IfcSurfaceStyleRendering-56
f 37//36 38//37 39//38
f 37//36 39//38 40//39
f 43//42 41//40 42//41
f 43//42 44//43 41//40
f 47//46 45//44 46//45
f 47//46 48//47 45//44
f 49//48 50//49 51//50
f 49//48 51//50 52//51
f 53//52 54//53 55//54
f 53//52 55//54 56//55
f 59//58 58//57 57//56
f 59//58 60//59 58//57
f 63//62 64//63 65//64
f 62//61 65//64 66//65
f 62//61 66//65 61//60
f 62//61 63//62 65//64
f 69//68 70//69 71//70
f 67//66 71//70 72//71
f 67//66 69//68 71//70
f 68//67 67//66 72//71
g product-59f5bdc9-4b2b-4174-9efb-6cff4586af19-body
s 1
v 51.164 58.88 20.27
v 51.164 58.88 19.99
v 51.156 58.88 19.99
v 51.156 58.88 20.27
v 51.164 58.88 19.99
v 51.164 58.824 19.99
v 51.156 58.824 19.99
v 51.156 58.88 19.99
v 51.164 58.824 19.99
v 51.164 58.804 20.01
v 51.156 58.804 20.01
v 51.156 58.824 19.99
v 51.164 58.804 20.01
v 51.164 58.804 20.25
v 51.156 58.804 20.25
v 51.156 58.804 20.01
v 51.164 58.804 20.25
v 51.164 58.824 20.27
v 51.156 58.824 20.27
v 51.156 58.804 20.25
v 51.164 58.88 20.27
v 51.164 58.824 20.27
v 51.156 58.88 20.27
v 51.156 58.824 20.27
v 51.156 58.824 19.99
v 51.156 58.804 20.01
v 51.156 58.804 20.25
v 51.156 58.824 20.27
v 51.156 58.88 20.27
v 51.156 58.88 19.99
v 51.164 58.804 20.25
v 51.164 58.824 20.27
v 51.164 58.804 20.01
v 51.164 58.824 19.99
v 51.164 58.88 19.99
v 51.164 58.88 20.27
vn 0 1 0
vn 0 1 0
vn 0 1 0
vn 0 1 0
vn 0 0 -1
vn 0 0 -1
vn 0 0 -1
vn 0 0 -1
vn 0 -0.707106781186548 -0.707106781186548
vn 0 -0.707106781186548 -0.707106781186548
vn 0 -0.707106781186548 -0.707106781186548
vn 0 -0.707106781186548 -0.707106781186548
vn 0 -1 0
vn 0 -1 0
vn 0 -1 0
vn 0 -1 0
vn 0 -0.707106781186548 0.707106781186547
vn 0 -0.707106781186548 0.707106781186547
vn 0 -0.707106781186548 0.707106781186547
vn 0 -0.707106781186548 0.707106781186547
vn 0 0 1
vn 0 0 1
vn 0 0 1
vn 0 0 1
vn -1 0 0
vn -1 0 0
vn -1 0 0
vn -1 0 0
vn -1 0 0
vn -1 0 0
vn 1 0 0
vn 1 0 0
vn 1 0 0
vn 1 0 0
vn 1 0 0
vn 1 0 0
usemtl IfcSurfaceStyleRendering-56
f 73//72 74//73 75//74
f 73//72 75//74 76//75
f 79//78 77//76 78//77
f 79//78 80//79 77//76
f 83//82 81//80 82//81
f 83//82 84//83 81//80
f 85//84 86//85 87//86
f 85//84 87//86 88//87
f 89//88 90//89 91//90
f 89//88 91//90 92//91
f 95//94 94//93 93//92
f 95//94 96//95 94//93
f 99//98 100//99 101//100
f 98//97 101//100 102//101
f 98//97 102//101 97//96
f 98//97 99//98 101//100
f 105//104 106//105 107//106
f 103//102 107//106 108//107
f 103//102 105//104 107//106
f 104//103 103//102 108//107
g product-58d16d55-e59c-4019-aa90-b09eb71bf630-body
s 1
v 51.156 58.72 20.27
v 51.156 58.72 19.99
v 51.164 58.72 19.99
v 51.164 58.72 20.27
v 51.156 58.72 19.99
v 51.156 58.776 19.99
v 51.164 58.776 19.99
v 51.164 58.72 19.99
v 51.156 58.776 19.99
v 51.156 58.796 20.01
v 51.164 58.796 20.01
v 51.164 58.776 19.99
v 51.156 58.796 20.01
v 51.156 58.796 20.25
v 51.164 58.796 20.25
v 51.164 58.796 20.01
v 51.156 58.796 20.25
v 51.156 58.776 20.27
v 51.164 58.776 20.27
v 51.164 58.796 20.25
v 51.156 58.72 20.27
v 51.156 58.776 20.27
v 51.164 58.72 20.27
v 51.164 58.776 20.27
v 51.164 58.776 19.99
v 51.164 58.796 20.01
v 51.164 58.796 20.25
v 51.164 58.776 20.27
v 51.164 58.72 20.27
v 51.164 58.72 19.99
v 51.156 58.796 20.25
v 51.156 58.776 20.27
v 51.156 58.796 20.01
v 51.156 58.776 19.99
v 51.156 58.72 19.99
v 51.156 58.72 20.27
vn 0 -1 0
vn 0 -1 0
vn 0 -1 0
vn 0 -1 0
vn 0 0 -1
vn 0 0 -1
vn 0 0 -1
vn 0 0 -1
vn 0 0.707106781186548 -0.707106781186548
vn 0 0.707106781186548 -0.707106781186548
vn 0 0.707106781186548 -0.707106781186548
vn 0 0.707106781186548 -0.707106781186548
vn 0 1 0
vn 0 1 0
vn 0 1 0
vn 0 1 0
vn 0 0.707106781186548 0.707106781186547
vn 0 0.707106781186548 0.707106781186547
vn 0 0.707106781186548 0.707106781186547
vn 0 0.707106781186548 0.707106781186547
vn 0 0 1
vn 0 0 1
vn 0 0 1
vn 0 0 1
vn 1 0 0
vn 1 0 0
vn 1 0 0
vn 1 0 0
vn 1 0 0
vn 1 0 0
vn -1 0 0
vn -1 0 0
vn -1 0 0
vn -1 0 0
vn -1 0 0
vn -1 0 0
usemtl IfcSurfaceStyleRendering-56
f 109//108 110//109 111//110
f 109//108 111//110 112//111
f 115//114 113//112 114//113
f 115//114 116//115 113//112
f 119//118 117//116 118//117
f 119//118 120//119 117//116
f 121//120 122//121 123//122
f 121//120 123//122 124//123
f 125//124 126//125 127//126
f 125//124 127//126 128//127
f 131//130 130//129 129//128
f 131//130 132//131 130//129
f 135//134 136//135 137//136
f 134//133 137//136 138//137
f 134//133 138//137 133//132
f 134//133 135//134 137//136
f 141//140 142//141 143//142
f 139//138 143//142 144//143
f 139//138 141//140 143//142
f 140//139 139//138 144//143
g product-27a4aaeb-88df-4fd5-a999-47f3693ad67d-body
s 1
v 51.6500000000149 58.9 19.974
v 51.6200000000149 58.9 19.974
v 51.6200000000149 58.9 19.98
v 51.6500000000149 58.9 19.98
v 51.6200000000149 58.9 19.974
v 51.6200000000149 58.7 19.974
v 51.6200000000149 58.7 19.98
v 51.6200000000149 58.9 19.98
v 51.6200000000149 58.7 19.974
v 51.6500000000149 58.7 19.974
v 51.6500000000149 58.7 19.98
v 51.6200000000149 58.7 19.98
v 51.6500000000149 58.9 19.974
v 51.6500000000149 58.7 19.974
v 51.6500000000149 58.9 19.98
v 51.6500000000149 58.7 19.98
v 51.6200000000149 58.7 19.98
v 51.6500000000149 58.7 19.98
v 51.6500000000149 58.9 19.98
v 51.6200000000149 58.9 19.98
v 51.6200000000149 58.7 19.974
v 51.6500000000149 58.7 19.974
v 51.6200000000149 58.9 19.974
v 51.6500000000149 58.9 19.974
vn 0 1 0
vn 0 1 0
vn 0 1 0
vn 0 1 0
vn -1 0 0
vn -1 0 0
vn -1 0 0
vn -1 0 0
vn 0 -1 0
vn 0 -1 0
vn 0 -1 0
vn 0 -1 0
vn 1 0 0
vn 1 0 0
vn 1 0 0
vn 1 0 0
vn 0 0 1
vn 0 0 1
vn 0 0 1
vn 0 0 1
vn 0 0 -1
vn 0 0 -1
vn 0 0 -1
vn 0 0 -1
usemtl IfcSurfaceStyleRendering-56
f 145//144 146//145 147//146
f 145//144 147//146 148//147
f 151//150 149//148 150//149
f 151//150 152//151 149//148
f 153//152 154//153 155//154
f 153//152 155//154 156//155
f 159//158 158//157 157//156
f 159//158 160//159 158//157
f 161//160 162//161 163//162
f 161//160 163//162 164//163
f 166//165 165//164 167//166
f 166//165 167//166 168//167
g product-72a14e4e-c1e9-416a-a198-7764ff57158e-body
s 1
v 51.6500000000149 58.9 20.264
v 51.6200000000149 58.9 20.264
v 51.6200000000149 58.9 20.27
v 51.6500000000149 58.9 20.27
v 51.6200000000149 58.9 20.264
v 51.6200000000149 58.7 20.264
v 51.6200000000149 58.7 20.27
v 51.6200000000149 58.9 20.27
v 51.6200000000149 58.7 20.264
v 51.6500000000149 58.7 20.264
v 51.6500000000149 58.7 20.27
v 51.6200000000149 58.7 20.27
v 51.6500000000149 58.9 20.264
v 51.6500000000149 58.7 20.264
v 51.6500000000149 58.9 20.27
v 51.6500000000149 58.7 20.27
v 51.6200000000149 58.7 20.27
v 51.6500000000149 58.7 20.27
v 51.6500000000149 58.9 20.27
v 51.6200000000149 58.9 20.27
v 51.6200000000149 58.7 20.264
v 51.6500000000149 58.7 20.264
v 51.6200000000149 58.9 20.264
v 51.6500000000149 58.9 20.264
vn 0 1 0
vn 0 1 0
vn 0 1 0
vn 0 1 0
vn -1 0 0
vn -1 0 0
vn -1 0 0
vn -1 0 0
vn 0 -1 0
vn 0 -1 0
vn 0 -1 0
vn 0 -1 0
vn 1 0 0
vn 1 0 0
vn 1 0 0
vn 1 0 0
vn 0 0 1
vn 0 0 1
vn 0 0 1
vn 0 0 1
vn 0 0 -1
vn 0 0 -1
vn 0 0 -1
vn 0 0 -1
usemtl IfcSurfaceStyleRendering-56
f 169//168 170//169 171//170
f 169//168 171//170 172//171
f 175//174 173//172 174//173
f 175//174 176//175 173//172
f 177//176 178//177 179//178
f 177//176 179//178 180//179
f 183//182 182//181 181//180
f 183//182 184//183 182//181
f 185//184 186//185 187//186
f 185//184 187//186 188//187
f 190//189 189//188 191//190
f 190//189 191//190 192//191
g product-37e28bea-354e-4ffc-8670-675cc39ffeee-body
s 1
v 50.95 58.7 19.974
v 50.98 58.7 19.974
v 50.98 58.7 19.98
v 50.95 58.7 19.98
v 50.98 58.7 19.974
v 50.98 58.9 19.974
v 50.98 58.9 19.98
v 50.98 58.7 19.98
v 50.98 58.9 19.974
v 50.95 58.9 19.974
v 50.95 58.9 19.98
v 50.98 58.9 19.98
v 50.95 58.7 19.974
v 50.95 58.9 19.974
v 50.95 58.7 19.98
v 50.95 58.9 19.98
v 50.98 58.9 19.98
v 50.95 58.9 19.98
v 50.95 58.7 19.98
v 50.98 58.7 19.98
v 50.98 58.9 19.974
v 50.95 58.9 19.974
v 50.98 58.7 19.974
v 50.95 58.7 19.974
vn 0 -1 0
vn 0 -1 0
vn 0 -1 0
vn 0 -1 0
vn 1 0 0
vn 1 0 0
vn 1 0 0
vn 1 0 0
vn 0 1 0
vn 0 1 0
vn 0 1 0
vn 0 1 0
vn -1 0 0
vn -1 0 0
vn -1 0 0
vn -1 0 0
vn 0 0 1
vn 0 0 1
vn 0 0 1
vn 0 0 1
vn 0 0 -1
vn 0 0 -1
vn 0 0 -1
vn 0 0 -1
usemtl IfcSurfaceStyleRendering-56
f 193//192 194//193 195//194
f 193//192 195//194 196//195
f 199//198 197//196 198//197
f 199//198 200//199 197//196
f 201//200 202//201 203//202
f 201//200 203//202 204//203
f 207//206 206//205 205//204
f 207//206 208//207 206//205
f 209//208 210//209 211//210
f 209//208 211//210 212//211
f 214//213 213//212 215//214
f 214//213 215//214 216//215
g product-5183e836-6eb8-4504-b878-8364145f6089-body
s 1
v 50.95 58.7 20.264
v 50.98 58.7 20.264
v 50.98 58.7 20.27
v 50.95 58.7 20.27
v 50.98 58.7 20.264
v 50.98 58.9 20.264
v 50.98 58.9 20.27
v 50.98 58.7 20.27
v 50.98 58.9 20.264
v 50.95 58.9 20.264
v 50.95 58.9 20.27
v 50.98 58.9 20.27
v 50.95 58.7 20.264
v 50.95 58.9 20.264
v 50.95 58.7 20.27
v 50.95 58.9 20.27
v 50.98 58.9 20.27
v 50.95 58.9 20.27
v 50.95 58.7 20.27
v 50.98 58.7 20.27
v 50.98 58.9 20.264
v 50.95 58.9 20.264
v 50.98 58.7 20.264
v 50.95 58.7 20.264
vn 0 -1 0
vn 0 -1 0
vn 0 -1 0
vn 0 -1 0
vn 1 0 0
vn 1 0 0
vn 1 0 0
vn 1 0 0
vn 0 1 0
vn 0 1 0
vn 0 1 0
vn 0 1 0
vn -1 0 0
vn -1 0 0
vn -1 0 0
vn -1 0 0
vn 0 0 1
vn 0 0 1
vn 0 0 1
vn 0 0 1
vn 0 0 -1
vn 0 0 -1
vn 0 0 -1
vn 0 0 -1
usemtl IfcSurfaceStyleRendering-56
f 217//216 218//217 219//218
f 217//216 219//218 220//219
f 223//222 221//220 222//221
f 223//222 224//223 221//220
f 225//224 226//225 227//226
f 225//224 227//226 228//227
f 231//230 230//229 229//228
f 231//230 232//231 230//229
f 233//232 234//233 235//234
f 233//232 235//234 236//235
f 238//237 237//236 239//238
f 238//237 239//238 240//239
g product-b889e5ac-d8d8-4639-aafc-fcfe48b32302-body
s 1
v 51.645 58.88 19.982
v 51.637 58.88 19.99
v 51.637 58.804 19.99
v 51.636 58.804 19.9910000000001
v 51.636 58.796 19.9910000000001
v 51.637 58.796 19.99
v 51.637 58.72 19.99
v 51.645 58.72 19.982
v 50.955 58.72 20.27
v 50.955 58.796 20.27
v 51.645 58.796 20.27
v 51.645 58.72 20.27
v 51.5999999999851 58.804 19.9910000000001
v 51.5999999999851 58.796 19.9910000000001
v 51.6349999999846 58.796 19.9910000000001
v 51.6349999999846 58.804 19.9910000000001
v 51.6004309089624 58.804 19.9964752059275
v 51.6004309089624 58.796 19.9964752059275
v 51.5999999999851 58.796 19.9910000000001
v 51.5999999999851 58.804 19.9910000000001
v 51.6017130234459 58.804 20.0018155940168
v 51.6017130234459 58.796 20.0018155940168
v 51.6004309089624 58.796 19.9964752059275
v 51.6004309089624 58.804 19.9964752059275
v 51.603814773537 58.804 20.006889666252
v 51.603814773537 58.796 20.006889666252
v 51.6017130234459 58.796 20.0018155940168
v 51.6017130234459 58.804 20.0018155940168
v 51.6066844071977 58.804 20.0115724821941
v 51.6066844071977 58.796 20.0115724821941
v 51.603814773537 58.796 20.006889666252
v 51.603814773537 58.804 20.006889666252
v 51.610251264557 58.804 20.0157487354278
v 51.610251264557 58.796 20.0157487354278
v 51.6066844071977 58.796 20.0115724821941
v 51.6066844071977 58.804 20.0115724821941
v 51.6144275177907 58.804 20.0193155927872
v 51.6144275177907 58.796 20.0193155927872
v 51.610251264557 58.796 20.0157487354278
v 51.610251264557 58.804 20.0157487354278
v 51.6191103337327 58.804 20.0221852264479
v 51.6191103337327 58.796 20.0221852264479
v 51.6144275177907 58.796 20.0193155927872
v 51.6144275177907 58.804 20.0193155927872
v 51.6241844059679 58.804 20.0242869765391
v 51.6241844059679 58.796 20.0242869765391
v 51.6191103337327 58.796 20.0221852264479
v 51.6191103337327 58.804 20.0221852264479
v 51.6295247940572 58.804 20.0255690910227
v 51.6295247940572 58.796 20.0255690910227
v 51.6241844059679 58.796 20.0242869765391
v 51.6241844059679 58.804 20.0242869765391
v 51.6349999999847 58.804 20.0260000000001
v 51.6349999999847 58.796 20.0260000000001
v 51.6295247940572 58.796 20.0255690910227
v 51.6295247940572 58.804 20.0255690910227
v 51.634999999985 58.804 20.2340000000001
v 51.634999999985 58.796 20.2340000000001
v 51.6349999999847 58.796 20.0260000000001
v 51.6349999999847 58.804 20.0260000000001
v 51.6295247937097 58.804 20.2344309080823
v 51.6295247937097 58.796 20.2344309080823
v 51.634999999985 58.796 20.2340000000001
v 51.634999999985 58.804 20.2340000000001
v 51.6241844051844 58.804 20.2357130219348
v 51.6241844051844 58.796 20.2357130219348
v 51.6295247937097 58.796 20.2344309080823
v 51.6295247937097 58.804 20.2344309080823
v 51.6191103324981 58.804 20.2378147716598
v 51.6191103324981 58.796 20.2378147716598
v 51.6241844051844 58.796 20.2357130219348
v 51.6241844051844 58.804 20.2357130219348
v 51.6144275161601 58.804 20.2406844052036
v 51.6144275161601 58.796 20.2406844052036
v 51.6191103324981 58.796 20.2378147716598
v 51.6191103324981 58.804 20.2378147716598
v 51.6102512626497 58.804 20.2442512626649
v 51.6102512626497 58.796 20.2442512626649
v 51.6144275161601 58.796 20.2406844052036
v 51.6144275161601 58.804 20.2406844052036
v 51.6066844051885 58.804 20.2484275161752
v 51.6066844051885 58.796 20.2484275161752
v 51.6102512626497 58.796 20.2442512626649
v 51.6102512626497 58.804 20.2442512626649
v 51.6038147716446 58.804 20.2531103325133
v 51.6038147716446 58.796 20.2531103325133
v 51.6066844051885 58.796 20.2484275161752
v 51.6066844051885 58.804 20.2484275161752
v 51.6017130219197 58.804 20.2581844051995
v 51.6017130219197 58.796 20.2581844051995
v 51.6038147716446 58.796 20.2531103325133
v 51.6038147716446 58.804 20.2531103325133
v 51.6004309080671 58.804 20.2635247937248
v 51.6004309080671 58.796 20.2635247937248
v 51.6017130219197 58.796 20.2581844051995
v 51.6017130219197 58.804 20.2581844051995
v 51.5999999999851 58.804 20.2690000000001
v 51.5999999999851 58.796 20.2690000000001
v 51.6004309080671 58.796 20.2635247937248
v 51.6004309080671 58.804 20.2635247937248
v 51.6349999999851 58.804 20.2690000000001
v 51.6349999999851 58.796 20.2690000000001
v 51.5999999999851 58.796 20.2690000000001
v 51.5999999999851 58.804 20.2690000000001
v 51.645 58.804 20.2690000000001
v 51.645 58.796 20.2690000000001
v 51.6349999999851 58.796 20.2690000000001
v 51.6349999999851 58.804 20.2690000000001
v 51.645 58.796 20.27
v 51.645 58.72 20.27
v 51.645 58.796 20.2690000000001
v 51.645 58.804 20.2690000000001
v 51.645 58.804 20.27
v 51.645 58.88 20.27
v 51.645 58.88 20.272
v 51.645 58.72 20.272
v 50.955 58.804 20.27
v 50.955 58.88 20.27
v 51.645 58.88 20.27
v 51.645 58.804 20.27
v 51.645 58.88 20.27
v 50.955 58.88 20.27
v 50.955 58.88 20.272
v 50.963 58.88 20.28
v 51.637 58.88 20.28
v 51.645 58.88 20.272
v 50.963 58.88 20.28
v 50.963 58.72 20.28
v 51.637 58.72 20.28
v 51.637 58.88 20.28
v 51.645 58.88 20.272
v 51.637 58.88 20.28
v 51.637 58.72 20.28
v 51.645 58.72 20.272
v 50.963 58.72 20.28
v 50.955 58.72 20.272
v 50.955 58.72 20.27
v 51.645 58.72 20.27
v 51.645 58.72 20.272
v 51.637 58.72 20.28
v 50.955 58.88 20.272
v 50.963 58.88 20.28
v 50.955 58.72 20.272
v 50.963 58.72 20.28
v 50.955 58.804 20.27
v 50.955 58.88 20.27
v 50.955 58.804 20.2690000000001
v 50.955 58.796 20.2690000000001
v 50.955 58.796 20.27
v 50.955 58.72 20.27
v 50.955 58.72 20.272
v 50.955 58.88 20.272
v 50.965 58.804 20.2690000000001
v 50.965 58.796 20.2690000000001
v 50.955 58.796 20.2690000000001
v 50.955 58.804 20.2690000000001
v 51 58.804 20.2690000000001
v 51 58.796 20.2690000000001
v 50.965 58.796 20.2690000000001
v 50.965 58.804 20.2690000000001
v 50.999569091918 58.804 20.2635247937248
v 50.999569091918 58.796 20.2635247937248
v 51 58.796 20.2690000000001
v 51 58.804 20.2690000000001
v 50.9982869780654 58.804 20.2581844051995
v 50.9982869780654 58.796 20.2581844051995
v 50.999569091918 58.796 20.2635247937248
v 50.999569091918 58.804 20.2635247937248
v 50.9961852283405 58.804 20.2531103325133
v 50.9961852283405 58.796 20.2531103325133
v 50.9982869780654 58.796 20.2581844051995
v 50.9982869780654 58.804 20.2581844051995
v 50.9933155947966 58.804 20.2484275161752
v 50.9933155947966 58.796 20.2484275161752
v 50.9961852283405 58.796 20.2531103325133
v 50.9961852283405 58.804 20.2531103325133
v 50.9897487373354 58.804 20.2442512626649
v 50.9897487373354 58.796 20.2442512626649
v 50.9933155947966 58.796 20.2484275161752
v 50.9933155947966 58.804 20.2484275161752
v 50.985572483825 58.804 20.2406844052036
v 50.985572483825 58.796 20.2406844052036
v 50.9897487373354 58.796 20.2442512626649
v 50.9897487373354 58.804 20.2442512626649
v 50.980889667487 58.804 20.2378147716598
v 50.980889667487 58.796 20.2378147716598
v 50.985572483825 58.796 20.2406844052036
v 50.985572483825 58.804 20.2406844052036
v 50.9758155948007 58.804 20.2357130219348
v 50.9758155948007 58.796 20.2357130219348
v 50.980889667487 58.796 20.2378147716598
v 50.980889667487 58.804 20.2378147716598
v 50.9704752062754 58.804 20.2344309080823
v 50.9704752062754 58.796 20.2344309080823
v 50.9758155948007 58.796 20.2357130219348
v 50.9758155948007 58.804 20.2357130219348
v 50.9650000000001 58.804 20.2340000000001
v 50.9650000000001 58.796 20.2340000000001
v 50.9704752062754 58.796 20.2344309080823
v 50.9704752062754 58.804 20.2344309080823
v 50.9650000000005 58.804 20.0260000000001
v 50.9650000000005 58.796 20.0260000000001
v 50.9650000000001 58.796 20.2340000000001
v 50.9650000000001 58.804 20.2340000000001
v 50.9704752059279 58.804 20.0255690910227
v 50.9704752059279 58.796 20.0255690910227
v 50.9650000000005 58.796 20.0260000000001
v 50.9650000000005 58.804 20.0260000000001
v 50.9758155940172 58.804 20.0242869765391
v 50.9758155940172 58.796 20.0242869765391
v 50.9704752059279 58.796 20.0255690910227
v 50.9704752059279 58.804 20.0255690910227
v 50.9808896662524 58.804 20.0221852264479
v 50.9808896662524 58.796 20.0221852264479
v 50.9758155940172 58.796 20.0242869765391
v 50.9758155940172 58.804 20.0242869765391
v 50.9855724821944 58.804 20.0193155927872
v 50.9855724821944 58.796 20.0193155927872
v 50.9808896662524 58.796 20.0221852264479
v 50.9808896662524 58.804 20.0221852264479
v 50.9897487354281 58.804 20.0157487354278
v 50.9897487354281 58.796 20.0157487354278
v 50.9855724821944 58.796 20.0193155927872
v 50.9855724821944 58.804 20.0193155927872
v 50.9933155927874 58.804 20.0115724821941
v 50.9933155927874 58.796 20.0115724821941
v 50.9897487354281 58.796 20.0157487354278
v 50.9897487354281 58.804 20.0157487354278
v 50.9961852264481 58.804 20.006889666252
v 50.9961852264481 58.796 20.006889666252
v 50.9933155927874 58.796 20.0115724821941
v 50.9933155927874 58.804 20.0115724821941
v 50.9982869765392 58.804 20.0018155940168
v 50.9982869765392 58.796 20.0018155940168
v 50.9961852264481 58.796 20.006889666252
v 50.9961852264481 58.804 20.006889666252
v 50.9995690910227 58.804 19.9964752059275
v 50.9995690910227 58.796 19.9964752059275
v 50.9982869765392 58.796 20.0018155940168
v 50.9982869765392 58.804 20.0018155940168
v 51 58.804 19.9910000000001
v 51 58.796 19.9910000000001
v 50.9995690910227 58.796 19.9964752059275
v 50.9995690910227 58.804 19.9964752059275
v 50.9650000000005 58.804 19.9910000000001
v 50.9650000000005 58.796 19.9910000000001
v 51 58.796 19.9910000000001
v 51 58.804 19.9910000000001
v 50.9650000000005 58.804 19.9910000000001
v 50.9650000000005 58.796 19.9910000000001
v 50.9640000000001 58.804 19.9910000000001
v 50.9640000000001 58.796 19.9910000000001
v 50.9640000000001 58.804 19.9910000000001
v 50.963 58.804 19.99
v 50.963 58.88 19.99
v 50.955 58.88 19.982
v 50.955 58.72 19.982
v 50.963 58.72 19.99
v 50.963 58.796 19.99
v 50.9640000000001 58.796 19.9910000000001
v 50.955 58.88 19.98
v 50.955 58.72 19.98
v 50.955 58.72 19.982
v 50.955 58.88 19.982
v 50.955 58.88 19.98
v 50.955 58.72 19.98
v 51.645 58.88 19.98
v 51.645 58.72 19.98
v 51.645 58.88 19.98
v 51.645 58.72 19.98
v 51.645 58.88 19.982
v 51.645 58.72 19.982
v 50.955 58.72 19.982
v 50.963 58.72 19.99
v 50.955 58.72 19.98
v 51.645 58.72 19.98
v 51.645 58.72 19.982
v 51.637 58.72 19.99
v 50.963 58.72 19.99
v 50.963 58.796 19.99
v 51.637 58.72 19.99
v 51.637 58.796 19.99
v 51.5999999999851 58.796 19.9910000000001
v 51.6349999999846 58.796 19.9910000000001
v 51.6004309089624 58.796 19.9964752059275
v 51.6017130234459 58.796 20.0018155940168
v 51.603814773537 58.796 20.006889666252
v 51.6066844071977 58.796 20.0115724821941
v 51.610251264557 58.796 20.0157487354278
v 51.6144275177907 58.796 20.0193155927872
v 51.6191103337327 58.796 20.0221852264479
v 51.6241844059679 58.796 20.0242869765391
v 51.6295247940572 58.796 20.0255690910227
v 51.6349999999847 58.796 20.0260000000001
v 51.634999999985 58.796 20.2340000000001
v 51.6295247937097 58.796 20.2344309080823
v 51.6241844051844 58.796 20.2357130219348
v 51.6191103324981 58.796 20.2378147716598
v 51.6144275161601 58.796 20.2406844052036
v 51.6102512626497 58.796 20.2442512626649
v 51.6066844051885 58.796 20.2484275161752
v 51.6038147716446 58.796 20.2531103325133
v 51.6017130219197 58.796 20.2581844051995
v 51.6004309080671 58.796 20.2635247937248
v 51.5999999999851 58.796 20.2690000000001
v 51.6349999999851 58.796 20.2690000000001
v 51.645 58.796 20.2690000000001
v 51.645 58.796 20.27
v 50.955 58.796 20.27
v 50.955 58.796 20.2690000000001
v 50.965 58.796 20.2690000000001
v 51 58.796 20.2690000000001
v 50.999569091918 58.796 20.2635247937248
v 50.9982869780654 58.796 20.2581844051995
v 50.9961852283405 58.796 20.2531103325133
v 50.9933155947966 58.796 20.2484275161752
v 50.9897487373354 58.796 20.2442512626649
v 50.985572483825 58.796 20.2406844052036
v 50.980889667487 58.796 20.2378147716598
v 50.9758155948007 58.796 20.2357130219348
v 50.9704752062754 58.796 20.2344309080823
v 50.9650000000001 58.796 20.2340000000001
v 50.9650000000005 58.796 20.0260000000001
v 50.9704752059279 58.796 20.0255690910227
v 50.9758155940172 58.796 20.0242869765391
v 50.9808896662524 58.796 20.0221852264479
v 50.9855724821944 58.796 20.0193155927872
v 50.9897487354281 58.796 20.0157487354278
v 50.9933155927874 58.796 20.0115724821941
v 50.9961852264481 58.796 20.006889666252
v 50.9982869765392 58.796 20.0018155940168
v 50.9995690910227 58.796 19.9964752059275
v 51 58.796 19.9910000000001
v 50.9650000000005 58.796 19.9910000000001
v 50.9640000000001 58.796 19.9910000000001
v 50.963 58.796 19.99
v 51.637 58.796 19.99
v 51.636 58.796 19.9910000000001
v 51.6349999999846 58.796 19.9910000000001
v 51.6349999999846 58.804 19.9910000000001
v 51.636 58.796 19.9910000000001
v 51.636 58.804 19.9910000000001
v 50.9640000000001 58.804 19.9910000000001
v 50.963 58.804 19.99
v 50.9650000000005 58.804 19.9910000000001
v 51 58.804 19.9910000000001
v 50.9995690910227 58.804 19.9964752059275
v 50.9982869765392 58.804 20.0018155940168
v 50.9961852264481 58.804 20.006889666252
v 50.9933155927874 58.804 20.0115724821941
v 50.9897487354281 58.804 20.0157487354278
v 50.9855724821944 58.804 20.0193155927872
v 50.9808896662524 58.804 20.0221852264479
v 50.9758155940172 58.804 20.0242869765391
v 50.9704752059279 58.804 20.0255690910227
v 50.9650000000005 58.804 20.0260000000001
v 50.9650000000001 58.804 20.2340000000001
v 50.9704752062754 58.804 20.2344309080823
v 50.9758155948007 58.804 20.2357130219348
v 50.980889667487 58.804 20.2378147716598
v 50.985572483825 58.804 20.2406844052036
v 50.9897487373354 58.804 20.2442512626649
v 50.9933155947966 58.804 20.2484275161752
v 50.9961852283405 58.804 20.2531103325133
v 50.9982869780654 58.804 20.2581844051995
v 50.999569091918 58.804 20.2635247937248
v 51 58.804 20.2690000000001
v 50.965 58.804 20.2690000000001
v 50.955 58.804 20.2690000000001
v 50.955 58.804 20.27
v 51.645 58.804 20.27
v 51.645 58.804 20.2690000000001
v 51.6349999999851 58.804 20.2690000000001
v 51.5999999999851 58.804 20.2690000000001
v 51.6004309080671 58.804 20.2635247937248
v 51.6017130219197 58.804 20.2581844051995
v 51.6038147716446 58.804 20.2531103325133
v 51.6066844051885 58.804 20.2484275161752
v 51.6102512626497 58.804 20.2442512626649
v 51.6144275161601 58.804 20.2406844052036
v 51.6191103324981 58.804 20.2378147716598
v 51.6241844051844 58.804 20.2357130219348
v 51.6295247937097 58.804 20.2344309080823
v 51.634999999985 58.804 20.2340000000001
v 51.6349999999847 58.804 20.0260000000001
v 51.6295247940572 58.804 20.0255690910227
v 51.6241844059679 58.804 20.0242869765391
v 51.6191103337327 58.804 20.0221852264479
v 51.6144275177907 58.804 20.0193155927872
v 51.610251264557 58.804 20.0157487354278
v 51.6066844071977 58.804 20.0115724821941
v 51.603814773537 58.804 20.006889666252
v 51.6017130234459 58.804 20.0018155940168
v 51.6004309089624 58.804 19.9964752059275
v 51.5999999999851 58.804 19.9910000000001
v 51.6349999999846 58.804 19.9910000000001
v 51.636 58.804 19.9910000000001
v 51.637 58.804 19.99
v 50.963 58.804 19.99
v 50.963 58.88 19.99
v 51.637 58.804 19.99
v 51.637 58.88 19.99
v 50.955 58.88 19.98
v 51.645 58.88 19.98
v 50.955 58.88 19.982
v 50.963 58.88 19.99
v 51.637 58.88 19.99
v 51.645 58.88 19.982
vn 0.707106781185921 0 0.707106781187174
vn 0.707106781185921 0 0.707106781187174
vn 0.707106781185921 0 0.707106781187174
vn 0.707106781185921 0 0.707106781187174
vn 0.707106781185921 0 0.707106781187174
vn 0.707106781185921 0 0.707106781187174
vn 0.707106781185921 0 0.707106781187174
vn 0.707106781185921 0 0.707106781187174
vn 0 0 -1
vn 0 0 -1
vn 0 0 -1
vn 0 0 -1
vn 0 0 1
vn 0 0 1
vn 0 0 1
vn 0 0 1
vn 0.996917320551051 0 -0.07845926322183
vn 0.996917320551051 0 -0.07845926322183
vn 0.996917320551051 0 -0.07845926322183
vn 0.996917320551051 0 -0.07845926322183
vn 0.972369889893004 0 -0.233445490916975
vn 0.972369889893004 0 -0.233445490916975
vn 0.972369889893004 0 -0.233445490916975
vn 0.972369889893004 0 -0.233445490916975
vn 0.923879496793299 0 -0.38268351859593
vn 0.923879496793299 0 -0.38268351859593
vn 0.923879496793299 0 -0.38268351859593
vn 0.923879496793299 0 -0.38268351859593
vn 0.852640135094952 0 -0.522498612462523
vn 0.852640135094952 0 -0.522498612462523
vn 0.852640135094952 0 -0.522498612462523
vn 0.852640135094952 0 -0.522498612462523
vn 0.760405953481092 0 -0.649448062519638
vn 0.760405953481092 0 -0.649448062519638
vn 0.760405953481092 0 -0.649448062519638
vn 0.760405953481092 0 -0.649448062519638
vn 0.649448062530835 0 -0.760405953471529
vn 0.649448062530835 0 -0.760405953471529
vn 0.649448062530835 0 -0.760405953471529
vn 0.649448062530835 0 -0.760405953471529
vn 0.522498612473195 0 -0.852640135088412
vn 0.522498612473195 0 -0.852640135088412
vn 0.522498612473195 0 -0.852640135088412
vn 0.522498612473195 0 -0.852640135088412
vn 0.382683518608054 0 -0.923879496788277
vn 0.382683518608054 0 -0.923879496788277
vn 0.382683518608054 0 -0.923879496788277
vn 0.382683518608054 0 -0.923879496788277
vn 0.233445490930291 0 -0.972369889889807
vn 0.233445490930291 0 -0.972369889889807
vn 0.233445490930291 0 -0.972369889889807
vn 0.233445490930291 0 -0.972369889889807
vn 0.0784592632236886 0 -0.996917320550905
vn 0.0784592632236886 0 -0.996917320550905
vn 0.0784592632236886 0 -0.996917320550905
vn 0.0784592632236886 0 -0.996917320550905
vn 1 0 -1.67761104153696e-12
vn 1 0 -1.67761104153696e-12
vn 1 0 -1.67761104153696e-12
vn 1 0 -1.67761104153696e-12
vn 0.0784590962916904 0 0.996917333688752
vn 0.0784590962916904 0 0.996917333688752
vn 0.0784590962916904 0 0.996917333688752
vn 0.0784590962916904 0 0.996917333688752
vn 0.233445364271916 0 0.972369920297801
vn 0.233445364271916 0 0.972369920297801
vn 0.233445364271916 0 0.972369920297801
vn 0.233445364271916 0 0.972369920297801
vn 0.382683432647406 0 0.923879532394348
vn 0.382683432647406 0 0.923879532394348
vn 0.382683432647406 0 0.923879532394348
vn 0.382683432647406 0 0.923879532394348
vn 0.522498564872446 0 0.85264016425819
vn 0.522498564872446 0 0.85264016425819
vn 0.522498564872446 0 0.85264016425819
vn 0.522498564872446 0 0.85264016425819
vn 0.649448048376506 0 0.760405965560468
vn 0.649448048376506 0 0.760405965560468
vn 0.649448048376506 0 0.760405965560468
vn 0.649448048376506 0 0.760405965560468
vn 0.760405965560113 0 0.649448048376921
vn 0.760405965560113 0 0.649448048376921
vn 0.760405965560113 0 0.649448048376921
vn 0.760405965560113 0 0.649448048376921
vn 0.852640164257821 0 0.522498564873049
vn 0.852640164257821 0 0.522498564873049
vn 0.852640164257821 0 0.522498564873049
vn 0.852640164257821 0 0.522498564873049
vn 0.923879532393999 0 0.382683432648247
vn 0.923879532393999 0 0.382683432648247
vn 0.923879532393999 0 0.382683432648247
vn 0.923879532393999 0 0.382683432648247
vn 0.972369920297295 0 0.233445364274025
vn 0.972369920297295 0 0.233445364274025
vn 0.972369920297295 0 0.233445364274025
vn 0.972369920297295 0 0.233445364274025
vn 0.996917333690979 0 0.0784590962633965
vn 0.996917333690979 0 0.0784590962633965
vn 0.996917333690979 0 0.0784590962633965
vn 0.996917333690979 0 0.0784590962633965
vn -1.13841228110978e-13 0 -1
vn -1.13841228110978e-13 0 -1
vn -1.13841228110978e-13 0 -1
vn -1.13841228110978e-13 0 -1
vn -3.03576607842244e-13 0 -1
vn -3.03576607842244e-13 0 -1
vn -3.03576607842244e-13 0 -1
vn -3.03576607842244e-13 0 -1
vn 1 0 0
vn 1 0 0
vn 1 0 0
vn 1 0 0
vn 1 0 0
vn 1 0 0
vn 1 0 0
vn 1 0 0
vn 0 0 -1
vn 0 0 -1
vn 0 0 -1
vn 0 0 -1
vn 0 1 6.02686988801155e-16
vn 0 1 6.02686988801155e-16
vn 0 1 6.02686988801155e-16
vn 0 1 6.02686988801155e-16
vn 0 1 6.02686988801155e-16
vn 0 1 6.02686988801155e-16
vn 0 0 1
vn 0 0 1
vn 0 0 1
vn 0 0 1
vn 0.707106781186547 0 0.707106781186548
vn 0.707106781186547 0 0.707106781186548
vn 0.707106781186547 0 0.707106781186548
vn 0.707106781186547 0 0.707106781186548
vn 0 -1 1.01505177061247e-15
vn 0 -1 1.01505177061247e-15
vn 0 -1 1.01505177061247e-15
vn 0 -1 1.01505177061247e-15
vn 0 -1 1.01505177061247e-15
vn 0 -1 1.01505177061247e-15
vn -0.707106781186862 0 0.707106781186233
vn -0.707106781186862 0 0.707106781186233
vn -0.707106781186862 0 0.707106781186233
vn -0.707106781186862 0 0.707106781186233
vn -1 0 0
vn -1 0 0
vn -1 0 0
vn -1 0 0
vn -1 0 0
vn -1 0 0
vn -1 0 0
vn -1 0 0
vn 3.98444298386682e-13 0 -1
vn 3.98444298386682e-13 0 -1
vn 3.98444298386682e-13 0 -1
vn 3.98444298386682e-13 0 -1
vn 0 0 -1
vn 0 0 -1
vn 0 0 -1
vn 0 0 -1
vn -0.996917333690986 0 0.0784590962633149
vn -0.996917333690986 0 0.0784590962633149
vn -0.996917333690986 0 0.0784590962633149
vn -0.996917333690986 0 0.0784590962633149
vn -0.972369920297254 0 0.233445364274197
vn -0.972369920297254 0 0.233445364274197
vn -0.972369920297254 0 0.233445364274197
vn -0.972369920297254 0 0.233445364274197
vn -0.923879532393977 0 0.382683432648301
vn -0.923879532393977 0 0.382683432648301
vn -0.923879532393977 0 0.382683432648301
vn -0.923879532393977 0 0.382683432648301
vn -0.852640164257991 0 0.522498564872772
vn -0.852640164257991 0 0.522498564872772
vn -0.852640164257991 0 0.522498564872772
vn -0.852640164257991 0 0.522498564872772
vn -0.76040596556011 0 0.649448048376926
vn -0.76040596556011 0 0.649448048376926
vn -0.76040596556011 0 0.649448048376926
vn -0.76040596556011 0 0.649448048376926
vn -0.649448048376513 0 0.760405965560462
vn -0.649448048376513 0 0.760405965560462
vn -0.649448048376513 0 0.760405965560462
vn -0.649448048376513 0 0.760405965560462
vn -0.5224985648719 0 0.852640164258525
vn -0.5224985648719 0 0.852640164258525
vn -0.5224985648719 0 0.852640164258525
vn -0.5224985648719 0 0.852640164258525
vn -0.382683432647406 0 0.923879532394348
vn -0.382683432647406 0 0.923879532394348
vn -0.382683432647406 0 0.923879532394348
vn -0.382683432647406 0 0.923879532394348
vn -0.233445364271913 0 0.972369920297802
vn -0.233445364271913 0 0.972369920297802
vn -0.233445364271913 0 0.972369920297802
vn -0.233445364271913 0 0.972369920297802
vn -0.0784590962916926 0 0.996917333688752
vn -0.0784590962916926 0 0.996917333688752
vn -0.0784590962916926 0 0.996917333688752
vn -0.0784590962916926 0 0.996917333688752
vn -1 0 -1.67884536401025e-12
vn -1 0 -1.67884536401025e-12
vn -1 0 -1.67884536401025e-12
vn -1 0 -1.67884536401025e-12
vn -0.078459263223874 0 -0.99691732055089
vn -0.078459263223874 0 -0.99691732055089
vn -0.078459263223874 0 -0.99691732055089
vn -0.078459263223874 0 -0.99691732055089
vn -0.2334454909303 0 -0.972369889889805
vn -0.2334454909303 0 -0.972369889889805
vn -0.2334454909303 0 -0.972369889889805
vn -0.2334454909303 0 -0.972369889889805
vn -0.382683518607912 0 -0.923879496788336
vn -0.382683518607912 0 -0.923879496788336
vn -0.382683518607912 0 -0.923879496788336
vn -0.382683518607912 0 -0.923879496788336
vn -0.522498612473313 0 -0.85264013508834
vn -0.522498612473313 0 -0.85264013508834
vn -0.522498612473313 0 -0.85264013508834
vn -0.522498612473313 0 -0.85264013508834
vn -0.649448062530814 0 -0.760405953471547
vn -0.649448062530814 0 -0.760405953471547
vn -0.649448062530814 0 -0.760405953471547
vn -0.649448062530814 0 -0.760405953471547
vn -0.760405953480997 0 -0.649448062519749
vn -0.760405953480997 0 -0.649448062519749
vn -0.760405953480997 0 -0.649448062519749
vn -0.760405953480997 0 -0.649448062519749
vn -0.852640135095028 0 -0.5224986124624
vn -0.852640135095028 0 -0.5224986124624
vn -0.852640135095028 0 -0.5224986124624
vn -0.852640135095028 0 -0.5224986124624
vn -0.923879496793299 0 -0.38268351859593
vn -0.923879496793299 0 -0.38268351859593
vn -0.923879496793299 0 -0.38268351859593
vn -0.923879496793299 0 -0.38268351859593
vn -0.972369889892991 0 -0.233445490917029
vn -0.972369889892991 0 -0.233445490917029
vn -0.972369889892991 0 -0.233445490917029
vn -0.972369889892991 0 -0.233445490917029
vn -0.996917320551058 0 -0.0784592632217493
vn -0.996917320551058 0 -0.0784592632217493
vn -0.996917320551058 0 -0.0784592632217493
vn -0.996917320551058 0 -0.0784592632217493
vn 0 0 1
vn 0 0 1
vn 0 0 1
vn 0 0 1
vn 0 0 1
vn 0 0 1
vn 0 0 1
vn 0 0 1
vn -0.707106781185911 9.30035311945356e-19 0.707106781187185
vn -0.707106781185911 9.30035311945356e-19 0.707106781187185
vn -0.707106781185911 9.30035311945356e-19 0.707106781187185
vn -0.707106781185911 9.30035311945356e-19 0.707106781187185
vn -0.707106781185911 9.30035311945356e-19 0.707106781187185
vn -0.707106781185911 9.30035311945356e-19 0.707106781187185
vn -0.707106781185911 9.30035311945356e-19 0.707106781187185
vn -0.707106781185911 9.30035311945356e-19 0.707106781187185
vn -1 0 0
vn -1 0 0
vn -1 0 0
vn -1 0 0
vn 0 0 -1
vn 0 0 -1
vn 0 0 -1
vn 0 0 -1
vn 1 0 0
vn 1 0 0
vn 1 0 0
vn 1 0 0
vn 0 -1 0
vn 0 -1 0
vn 0 -1 0
vn 0 -1 0
vn 0 -1 0
vn 0 -1 0
vn 0 0 1
vn 0 0 1
vn 0 0 1
vn 0 0 1
vn -5.52612512445913e-15 -1 -6.25537621017082e-17
vn -5.52612512445913e-15 -1 -6.25537621017082e-17
vn -5.52612512445913e-15 -1 -6.25537621017082e-17
vn -5.52612512445913e-15 -1 -6.25537621017082e-17
vn -5.52612512445913e-15 -1 -6.25537621017082e-17
vn -5.52612512445913e-15 -1 -6.25537621017082e-17
vn -5.52612512445913e-15 -1 -6.25537621017082e-17
vn -5.52612512445913e-15 -1 -6.25537621017082e-17
vn -5.52612512445913e-15 -1 -6.25537621017082e-17
vn -5.52612512445913e-15 -1 -6.25537621017082e-17
vn -5.52612512445913e-15 -1 -6.25537621017082e-17
vn -5.52612512445913e-15 -1 -6.25537621017082e-17
vn -5.52612512445913e-15 -1 -6.25537621017082e-17
vn -5.52612512445913e-15 -1 -6.25537621017082e-17
vn -5.52612512445913e-15 -1 -6.25537621017082e-17
vn -5.52612512445913e-15 -1 -6.25537621017082e-17
vn -5.52612512445913e-15 -1 -6.25537621017082e-17
vn -5.52612512445913e-15 -1 -6.25537621017082e-17
vn -5.52612512445913e-15 -1 -6.25537621017082e-17
vn -5.52612512445913e-15 -1 -6.25537621017082e-17
vn -5.52612512445913e-15 -1 -6.25537621017082e-17
vn -5.52612512445913e-15 -1 -6.25537621017082e-17
vn -5.52612512445913e-15 -1 -6.25537621017082e-17
vn -5.52612512445913e-15 -1 -6.25537621017082e-17
vn -5.52612512445913e-15 -1 -6.25537621017082e-17
vn -5.52612512445913e-15 -1 -6.25537621017082e-17
vn -5.52612512445913e-15 -1 -6.25537621017082e-17
vn -5.52612512445913e-15 -1 -6.25537621017082e-17
vn -5.52612512445913e-15 -1 -6.25537621017082e-17
vn -5.52612512445913e-15 -1 -6.25537621017082e-17
vn -5.52612512445913e-15 -1 -6.25537621017082e-17
vn -5.52612512445913e-15 -1 -6.25537621017082e-17
vn -5.52612512445913e-15 -1 -6.25537621017082e-17
vn -5.52612512445913e-15 -1 -6.25537621017082e-17
vn -5.52612512445913e-15 -1 -6.25537621017082e-17
vn -5.52612512445913e-15 -1 -6.25537621017082e-17
vn -5.52612512445913e-15 -1 -6.25537621017082e-17
vn -5.52612512445913e-15 -1 -6.25537621017082e-17
vn -5.52612512445913e-15 -1 -6.25537621017082e-17
vn -5.52612512445913e-15 -1 -6.25537621017082e-17
vn -5.52612512445913e-15 -1 -6.25537621017082e-17
vn -5.52612512445913e-15 -1 -6.25537621017082e-17
vn -5.52612512445913e-15 -1 -6.25537621017082e-17
vn -5.52612512445913e-15 -1 -6.25537621017082e-17
vn -5.52612512445913e-15 -1 -6.25537621017082e-17
vn -5.52612512445913e-15 -1 -6.25537621017082e-17
vn -5.52612512445913e-15 -1 -6.25537621017082e-17
vn -5.52612512445913e-15 -1 -6.25537621017082e-17
vn -5.52612512445913e-15 -1 -6.25537621017082e-17
vn -5.52612512445913e-15 -1 -6.25537621017082e-17
vn -5.52612512445913e-15 -1 -6.25537621017082e-17
vn -5.52612512445913e-15 -1 -6.25537621017082e-17
vn -5.52612512445913e-15 -1 -6.25537621017082e-17
vn -5.52612512445913e-15 -1 -6.25537621017082e-17
vn -5.52612512445913e-15 -1 -6.25537621017082e-17
vn -5.52612512445913e-15 -1 -6.25537621017082e-17
vn 0 0 1
vn 0 0 1
vn 0 0 1
vn 0 0 1
vn 0 1 2.35964976026483e-18
vn 0 1 2.35964976026483e-18
vn 0 1 2.35964976026483e-18
vn 0 1 2.35964976026483e-18
vn 0 1 2.35964976026483e-18
vn 0 1 2.35964976026483e-18
vn 0 1 2.35964976026483e-18
vn 0 1 2.35964976026483e-18
vn 0 1 2.35964976026483e-18
vn 0 1 2.35964976026483e-18
vn 0 1 2.35964976026483e-18
vn 0 1 2.35964976026483e-18
vn 0 1 2.35964976026483e-18
vn 0 1 2.35964976026483e-18
vn 0 1 2.35964976026483e-18
vn 0 1 2.35964976026483e-18
vn 0 1 2.35964976026483e-18
vn 0 1 2.35964976026483e-18
vn 0 1 2.35964976026483e-18
vn 0 1 2.35964976026483e-18
vn 0 1 2.35964976026483e-18
vn 0 1 2.35964976026483e-18
vn 0 1 2.35964976026483e-18
vn 0 1 2.35964976026483e-18
vn 0 1 2.35964976026483e-18
vn 0 1 2.35964976026483e-18
vn 0 1 2.35964976026483e-18
vn 0 1 2.35964976026483e-18
vn 0 1 2.35964976026483e-18
vn 0 1 2.35964976026483e-18
vn 0 1 2.35964976026483e-18
vn 0 1 2.35964976026483e-18
vn 0 1 2.35964976026483e-18
vn 0 1 2.35964976026483e-18
vn 0 1 2.35964976026483e-18
vn 0 1 2.35964976026483e-18
vn 0 1 2.35964976026483e-18
vn 0 1 2.35964976026483e-18
vn 0 1 2.35964976026483e-18
vn 0 1 2.35964976026483e-18
vn 0 1 2.35964976026483e-18
vn 0 1 2.35964976026483e-18
vn 0 1 2.35964976026483e-18
vn 0 1 2.35964976026483e-18
vn 0 1 2.35964976026483e-18
vn 0 1 2.35964976026483e-18
vn 0 1 2.35964976026483e-18
vn 0 1 2.35964976026483e-18
vn 0 1 2.35964976026483e-18
vn 0 1 2.35964976026483e-18
vn 0 1 2.35964976026483e-18
vn 0 1 2.35964976026483e-18
vn 0 1 2.35964976026483e-18
vn 0 1 2.35964976026483e-18
vn 0 1 2.35964976026483e-18
vn 0 1 2.35964976026483e-18
vn 0 0 1
vn 0 0 1
vn 0 0 1
vn 0 0 1
vn 0 1 -2.06182390905663e-16
vn 0 1 -2.06182390905663e-16
vn 0 1 -2.06182390905663e-16
vn 0 1 -2.06182390905663e-16
vn 0 1 -2.06182390905663e-16
vn 0 1 -2.06182390905663e-16
usemtl IfcSurfaceStyleRendering-225
f 246//245 247//246 248//247
f 244//243 245//244 246//245
f 243//242 244//243 246//245
f 241//240 242//241 243//242
f 248//247 241//240 243//242
f 248//247 243//242 246//245
f 250//249 251//250 252//251
f 250//249 252//251 249//248
f 256//255 253//252 254//253
f 256//255 254//253 255//254
f 258//257 259//258 260//259
f 258//257 260//259 257//256
f 262//261 263//262 264//263
f 262//261 264//263 261//260
f 266//265 267//266 268//267
f 266//265 268//267 265//264
f 270//269 271//270 272//271
f 270//269 272//271 269//268
f 274//273 275//274 276//275
f 274//273 276//275 273//272
f 280//279 277//276 278//277
f 280//279 278//277 279//278
f 284//283 281//280 282//281
f 284//283 282//281 283//282
f 288//287 285//284 286//285
f 288//287 286//285 287//286
f 292//291 289//288 290//289
f 292//291 290//289 291//290
f 296//295 293//292 294//293
f 296//295 294//293 295//294
f 298//297 299//298 300//299
f 298//297 300//299 297//296
f 304//303 301//300 302//301
f 304//303 302//301 303//302
f 308//307 305//304 306//305
f 308//307 306//305 307//306
f 312//311 309//308 310//309
f 312//311 310//309 311//310
f 316//315 313//312 314//313
f 316//315 314//313 315//314
f 320//319 317//316 318//317
f 320//319 318//317 319//318
f 322//321 323//322 324//323
f 322//321 324//323 321//320
f 326//325 327//326 328//327
f 326//325 328//327 325//324
f 330//329 331//330 332//331
f 330//329 332//331 329//328
f 334//333 335//334 336//335
f 334//333 336//335 333//332
f 338//337 339//338 340//339
f 338//337 340//339 337//336
f 344//343 341//340 342//341
f 344//343 342//341 343//342
f 348//347 345//344 346//345
f 348//347 346//345 347//346
f 353//352 354//353 355//354
f 349//348 351//350 352//351
f 349//348 352//351 353//352
f 356//355 350//349 349//348
f 355//354 356//355 349//348
f 355//354 349//348 353//352
f 358//357 359//358 360//359
f 358//357 360//359 357//356
f 364//363 362//361 363//362
f 365//364 361//360 362//361
f 365//364 362//361 364//363
f 366//365 361//360 365//364
f 370//369 367//366 368//367
f 370//369 368//367 369//368
f 371//370 372//371 373//372
f 371//370 373//372 374//373
f 377//376 375//374 376//375
f 380//379 375//374 377//376
f 378//377 379//378 380//379
f 378//377 380//379 377//376
f 383//382 382//381 381//380
f 383//382 384//383 382//381
f 385//384 392//391 386//385
f 388//387 385//384 387//386
f 388//387 389//388 385//384
f 390//389 391//390 389//388
f 391//390 392//391 385//384
f 391//390 385//384 389//388
f 396//395 393//392 394//393
f 396//395 394//393 395//394
f 400//399 397//396 398//397
f 400//399 398//397 399//398
f 402//401 403//402 404//403
f 402//401 404//403 401//400
f 406//405 407//406 408//407
f 406//405 408//407 405//404
f 410//409 411//410 412//411
f 410//409 412//411 409//408
f 414//413 415//414 416//415
f 414//413 416//415 413//412
f 418//417 419//418 420//419
f 418//417 420//419 417//416
f 424//423 421//420 422//421
f 424//423 422//421 423//422
f 428//427 425//424 426//425
f 428//427 426//425 427//426
f 432//431 429//428 430//429
f 432//431 430//429 431//430
f 436//435 433//432 434//433
f 436//435 434//433 435//434
f 440//439 437//436 438//437
f 440//439 438//437 439//438
f 442//441 443//442 444//443
f 442//441 444//443 441//440
f 448//447 445//444 446//445
f 448//447 446//445 447//446
f 452//451 449//448 450//449
f 452//451 450//449 451//450
f 456//455 453//452 454//453
f 456//455 454//453 455//454
f 460//459 457//456 458//457
f 460//459 458//457 459//458
f 464//463 461//460 462//461
f 464//463 462//461 463//462
f 466//465 467//466 468//467
f 466//465 468//467 465//464
f 470//469 471//470 472//471
f 470//469 472//471 469//468
f 474//473 475//474 476//475
f 474//473 476//475 473//472
f 478//477 479//478 480//479
f 478//477 480//479 477//476
f 482//481 483//482 484//483
f 482//481 484//483 481//480
f 488//487 485//484 486//485
f 488//487 486//485 487//486
f 489//488 491//490 492//491
f 489//488 492//491 490//489
f 499//498 497//496 498//497
f 493//492 499//498 500//499
f 493//492 494//493 499//498
f 495//494 496//495 494//493
f 496//495 497//496 499//498
f 496//495 499//498 494//493
f 502//501 503//502 504//503
f 502//501 504//503 501//500
f 505//504 507//506 508//507
f 505//504 508//507 506//505
f 512//511 510//509 509//508
f 512//511 509//508 511//510
f 515//514 514//513 513//512
f 516//515 517//516 518//517
f 516//515 518//517 514//513
f 516//515 514//513 515//514
f 522//521 520//519 519//518
f 522//521 519//518 521//520
f 546//545 547//546 548//547
f 545//544 546//545 548//547
f 534//533 535//534 536//535
f 533//532 536//535 537//536
f 533//532 534//533 536//535
f 532//531 537//536 538//537
f 532//531 533//532 537//536
f 531//530 538//537 539//538
f 531//530 532//531 538//537
f 530//529 539//538 540//539
f 530//529 531//530 539//538
f 529//528 530//529 540//539
f 524//523 577//576 578//577
f 528//527 540//539 541//540
f 528//527 529//528 540//539
f 527//526 541//540 542//541
f 527//526 528//527 541//540
f 523//522 577//576 524//523
f 553//552 545//544 552//551
f 553//552 543//542 544//543
f 553//552 544//543 545//544
f 554//553 543//542 553//552
f 555//554 542//541 543//542
f 555//554 543//542 554//553
f 549//548 551//550 552//551
f 550//549 551//550 549//548
f 567//566 568//567 557//556
f 567//566 557//556 558//557
f 569//568 557//556 568//567
f 569//568 556//555 557//556
f 566//565 558//557 559//558
f 566//565 567//566 558//557
f 570//569 542//541 555//554
f 570//569 555//554 556//555
f 570//569 556//555 569//568
f 570//569 527//526 542//541
f 565//564 566//565 559//558
f 565//564 559//558 560//559
f 571//570 526//525 527//526
f 571//570 527//526 570//569
f 564//563 560//559 561//560
f 564//563 565//564 560//559
f 572//571 525//524 526//525
f 572//571 526//525 571//570
f 563//562 561//560 562//561
f 563//562 564//563 561//560
f 573//572 523//522 525//524
f 573//572 525//524 572//571
f 576//575 573//572 574//573
f 576//575 574//573 575//574
f 548//547 549//548 552//551
f 548//547 552//551 545//544
f 576//575 577//576 523//522
f 576//575 523//522 573//572
f 582//581 580//579 579//578
f 582//581 579//578 581//580
f 585//584 584//583 583//582
f 586//585 584//583 585//584
f 598//597 595//594 596//595
f 598//597 596//595 597//596
f 599//598 594//593 595//594
f 599//598 595//594 598//597
f 600//599 593//592 594//593
f 600//599 594//593 599//598
f 601//600 592//591 593//592
f 601//600 593//592 600//599
f 608//607 609//608 610//609
f 602//601 590//589 591//590
f 602//601 591//590 592//591
f 602//601 592//591 601//600
f 603//602 589//588 590//589
f 603//602 590//589 602//601
f 604//603 589//588 603//602
f 607//606 608//607 610//609
f 634//633 586//585 587//586
f 634//633 635//634 586//585
f 633//632 587//586 588//587
f 633//632 634//633 587//586
f 632//631 588//587 589//588
f 632//631 633//632 588//587
f 638//637 635//634 636//635
f 637//636 638//637 636//635
f 619//618 629//628 630//629
f 619//618 630//629 631//630
f 618//617 619//618 631//630
f 618//617 631//630 632//631
f 620//619 629//628 619//618
f 620//619 628//627 629//628
f 617//616 632//631 589//588
f 617//616 618//617 632//631
f 617//616 589//588 604//603
f 621//620 627//626 628//627
f 621//620 628//627 620//619
f 616//615 617//616 604//603
f 616//615 604//603 605//604
f 616//615 605//604 606//605
f 622//621 626//625 627//626
f 622//621 627//626 621//620
f 615//614 616//615 606//605
f 623//622 625//624 626//625
f 623//622 626//625 622//621
f 624//623 625//624 623//622
f 614//613 606//605 607//606
f 614//613 615//614 606//605
f 611//610 612//611 613//612
f 611//610 613//612 614//613
f 610//609 611//610 614//613
f 610//609 614//613 607//606
f 638//637 584//583 635//634
f 635//634 584//583 586//585
f 642//641 640//639 639//638
f 642//641 639//638 641//640
f 646//645 643//642 645//644
f 647//646 644//643 643//642
f 647//646 643//642 646//645
f 648//647 644//643 647//646
